<svg width="1200" height="800" viewBox="0 0 1200 800" fill="none" xmlns="http://www.w3.org/2000/svg">
  <rect width="1200" height="800" fill="url(#bg)"/>
  <rect x="118" y="122" width="964" height="556" rx="42" fill="#FDFEFF" stroke="#D5E6F4" stroke-width="4"/>
  <rect x="178" y="204" width="220" height="390" rx="26" fill="#EDF5FF"/>
  <rect x="428" y="204" width="220" height="390" rx="26" fill="#DFF6F2"/>
  <rect x="678" y="204" width="220" height="390" rx="26" fill="#EDF5FF"/>
  <rect x="928" y="204" width="94" height="390" rx="26" fill="#DFF6F2"/>
  <rect x="212" y="238" width="152" height="92" rx="18" fill="#0F5A8A"/>
  <rect x="462" y="238" width="152" height="124" rx="18" fill="#0D7377"/>
  <rect x="712" y="238" width="152" height="76" rx="18" fill="#82B8FF"/>
  <rect x="948" y="238" width="54" height="110" rx="18" fill="#0D7377"/>
  <rect x="212" y="356" width="152" height="154" rx="18" fill="#82B8FF"/>
  <rect x="462" y="388" width="152" height="122" rx="18" fill="#7CD7CE"/>
  <rect x="712" y="340" width="152" height="170" rx="18" fill="#0F5A8A"/>
  <rect x="948" y="374" width="54" height="136" rx="18" fill="#82B8FF"/>
  <defs>
    <linearGradient id="bg" x1="88" y1="48" x2="1110" y2="756" gradientUnits="userSpaceOnUse">
      <stop stop-color="#F3F9FF"/>
      <stop offset="0.55" stop-color="#FFFFFF"/>
      <stop offset="1" stop-color="#E7F9F6"/>
    </linearGradient>
  </defs>
</svg>
