<svg width="1200" height="800" viewBox="0 0 1200 800" fill="none" xmlns="http://www.w3.org/2000/svg">
  <rect width="1200" height="800" fill="#F6FBFF"/>
  <rect width="1200" height="800" fill="url(#bg)"/>
  <circle cx="210" cy="170" r="120" fill="#DDF6F5"/>
  <circle cx="1010" cy="140" r="110" fill="#E7F0FF"/>
  <circle cx="980" cy="670" r="170" fill="#DDF1FF"/>
  <rect x="110" y="470" width="980" height="180" rx="32" fill="#FDFEFF" stroke="#C7E8E5" stroke-width="4"/>
  <rect x="150" y="505" width="220" height="110" rx="24" fill="#D7F1EF"/>
  <rect x="410" y="505" width="300" height="110" rx="24" fill="#E9F4FF"/>
  <rect x="750" y="505" width="300" height="110" rx="24" fill="#F7FBFF"/>
  <path d="M250 228H310L294 316C292 326 298 335 308 339L353 357C369 363 381 377 384 394L391 430H169L176 394C179 377 191 363 207 357L252 339C262 335 268 326 266 316L250 228Z" fill="#0D7377"/>
  <path d="M526 204H602V246H590V424H538V246H526V204Z" fill="#0F5A8A"/>
  <path d="M511 424H617L590 502H538L511 424Z" fill="#82B8FF"/>
  <rect x="762" y="222" width="160" height="208" rx="34" fill="#0D7377"/>
  <rect x="786" y="246" width="112" height="160" rx="24" fill="#B4F2EC"/>
  <rect x="806" y="282" width="72" height="36" rx="18" fill="#FDFEFF"/>
  <path d="M191 430H363" stroke="#E7FFFC" stroke-width="10" stroke-linecap="round"/>
  <path d="M545 336H583" stroke="#FDFEFF" stroke-width="12" stroke-linecap="round"/>
  <path d="M560 302V370" stroke="#FDFEFF" stroke-width="12" stroke-linecap="round"/>
  <rect x="856" y="545" width="150" height="36" rx="18" fill="#0D7377"/>
  <rect x="876" y="555" width="62" height="16" rx="8" fill="#FDFEFF"/>
  <defs>
    <linearGradient id="bg" x1="104" y1="66" x2="1092" y2="756" gradientUnits="userSpaceOnUse">
      <stop stop-color="#EEF8FF"/>
      <stop offset="0.55" stop-color="#FBFFFE"/>
      <stop offset="1" stop-color="#E1F7F1"/>
    </linearGradient>
  </defs>
</svg>
