<svg width="1200" height="800" viewBox="0 0 1200 800" fill="none" xmlns="http://www.w3.org/2000/svg">
  <rect width="1200" height="800" fill="url(#bg)"/>
  <circle cx="302" cy="192" r="126" fill="#E4F0FF"/>
  <circle cx="914" cy="176" r="118" fill="#E4FFF8"/>
  <path d="M274 596C274 492.171 358.171 408 462 408H738C841.829 408 926 492.171 926 596V646H274V596Z" fill="#0F5A8A"/>
  <rect x="468" y="188" width="262" height="238" rx="56" fill="#FDFEFF" stroke="#D3E8E5" stroke-width="4"/>
  <circle cx="600" cy="306" r="84" fill="#DFF7F2"/>
  <circle cx="600" cy="306" r="42" fill="#0D7377"/>
  <path d="M600 238V374" stroke="#FDFEFF" stroke-width="14" stroke-linecap="round"/>
  <path d="M532 306H668" stroke="#FDFEFF" stroke-width="14" stroke-linecap="round"/>
  <g fill="#82B8FF">
    <circle cx="326" cy="520" r="24"/>
    <circle cx="430" cy="468" r="24"/>
    <circle cx="554" cy="514" r="24"/>
    <circle cx="674" cy="466" r="24"/>
    <circle cx="790" cy="520" r="24"/>
    <circle cx="884" cy="474" r="24"/>
  </g>
  <g stroke="#B9F4EC" stroke-width="8" stroke-linecap="round">
    <path d="M326 520L430 468L554 514L674 466L790 520L884 474"/>
  </g>
  <defs>
    <linearGradient id="bg" x1="92" y1="50" x2="1106" y2="748" gradientUnits="userSpaceOnUse">
      <stop stop-color="#F2F9FF"/>
      <stop offset="0.58" stop-color="#FFFFFF"/>
      <stop offset="1" stop-color="#E6FBF7"/>
    </linearGradient>
  </defs>
</svg>
