<svg width="1200" height="800" viewBox="0 0 1200 800" fill="none" xmlns="http://www.w3.org/2000/svg">
  <rect width="1200" height="800" fill="url(#bg)"/>
  <circle cx="238" cy="154" r="108" fill="#E3F2FF"/>
  <circle cx="1002" cy="170" r="120" fill="#E5FFF8"/>
  <circle cx="268" cy="604" r="170" fill="#EAF6FF"/>
  <circle cx="878" cy="612" r="210" fill="#E2FBF7"/>
  <g stroke="#0D7377" stroke-width="6" stroke-linecap="round">
    <path d="M314 326L446 252"/>
    <path d="M446 252L596 330"/>
    <path d="M596 330L736 240"/>
    <path d="M596 330L676 470"/>
    <path d="M446 252L422 430"/>
    <path d="M736 240L888 326"/>
  </g>
  <g fill="#0F5A8A">
    <circle cx="314" cy="326" r="30"/>
    <circle cx="446" cy="252" r="30"/>
    <circle cx="596" cy="330" r="30"/>
    <circle cx="736" cy="240" r="30"/>
    <circle cx="676" cy="470" r="30"/>
    <circle cx="422" cy="430" r="30"/>
    <circle cx="888" cy="326" r="30"/>
  </g>
  <rect x="776" y="470" width="214" height="126" rx="34" fill="#FDFEFF" stroke="#CFE7E4" stroke-width="4"/>
  <circle cx="884" cy="534" r="44" fill="#7CD7CE"/>
  <circle cx="884" cy="534" r="18" fill="#FDFEFF"/>
  <defs>
    <linearGradient id="bg" x1="82" y1="42" x2="1104" y2="754" gradientUnits="userSpaceOnUse">
      <stop stop-color="#F2F9FF"/>
      <stop offset="0.52" stop-color="#FFFFFF"/>
      <stop offset="1" stop-color="#E8FCF7"/>
    </linearGradient>
  </defs>
</svg>
