<?xml version="1.0" encoding="UTF-8"?>
<svg version="1.1" xmlns="http://www.w3.org/2000/svg" width="1254" height="1254">
<path d="M0 0 C413.82 0 827.64 0 1254 0 C1254 413.82 1254 827.64 1254 1254 C840.18 1254 426.36 1254 0 1254 C0 840.18 0 426.36 0 0 Z " fill="#FDFDFD" transform="translate(0,0)"/>
<path d="M0 0 C2.29554785 0.68408746 4.55599953 1.14936949 6.91479492 1.55737305 C17.10708876 3.49261871 27.18191682 6.71443954 36.28979492 11.68237305 C37.3287793 12.1206543 38.36776367 12.55893555 39.43823242 13.01049805 C43.86161705 14.88347848 48.10204695 17.07349564 52.35229492 19.30737305 C53.58943237 19.95681885 53.58943237 19.95681885 54.8515625 20.61938477 C62.2729772 24.57163444 69.32566023 28.97902596 76.28979492 33.68237305 C74.78887182 37.28458848 72.71239656 39.31480803 69.85229492 41.93237305 C46.3584008 65.12246681 34.70243243 100.03870409 24.93383789 130.73608398 C24.15320993 133.09513101 23.25786056 135.39421791 22.28979492 137.68237305 C21.95979492 137.68237305 21.62979492 137.68237305 21.28979492 137.68237305 C21.10187378 136.8459729 21.10187378 136.8459729 20.91015625 135.99267578 C12.26065041 97.8054017 -3.26729232 60.05167439 -37.58520508 37.99487305 C-39.38633589 36.88196939 -41.19650757 35.78732823 -43.01635742 34.70532227 C-44.54920195 33.77960612 -46.04818534 32.79838333 -47.54223633 31.8112793 C-65.32616419 20.88790911 -89.64964122 16.29929959 -110.05786133 20.7644043 C-111.80127205 21.21777466 -113.53990666 21.68999587 -115.27270508 22.18237305 C-116.07708008 22.40046631 -116.88145508 22.61855957 -117.71020508 22.84326172 C-120.7481873 23.84791507 -123.01390706 24.61388624 -124.80273438 27.35888672 C-125.61973452 29.4472962 -126.18206614 31.5035317 -126.71020508 33.68237305 C-126.93571045 34.40183105 -127.16121582 35.12128906 -127.39355469 35.86254883 C-133.58665049 55.63488317 -135.36165225 78.43817836 -126.71020508 97.68237305 C-126.29206543 98.63176758 -126.29206543 98.63176758 -125.86547852 99.6003418 C-121.39625333 109.51875516 -115.46268798 117.1200665 -107.71020508 124.68237305 C-106.99219727 125.4094043 -106.27418945 126.13643555 -105.53442383 126.88549805 C-84.25320337 147.24493306 -50.78591432 157.70388973 -23.72192383 167.39428711 C-15.3009571 170.41730146 -7.28580122 173.71383786 0.67260742 177.84643555 C3.1980405 179.15163731 5.74861788 180.35955193 8.34448242 181.51831055 C23.32271567 188.22087524 37.03384408 196.69976775 49.28979492 207.68237305 C50.04260742 208.35268555 50.79541992 209.02299805 51.57104492 209.71362305 C69.59267032 226.71994561 81.95717262 250.38978561 82.7043457 275.33422852 C82.82860492 289.74036571 81.22101888 304.10486807 76.28979492 317.68237305 C75.95979492 317.68237305 75.62979492 317.68237305 75.28979492 317.68237305 C73.86353927 310.2709374 72.98907628 303.23375237 73.28979492 295.68237305 C72.62979492 295.68237305 71.96979492 295.68237305 71.28979492 295.68237305 C71.34200195 297.15383789 71.34200195 297.15383789 71.39526367 298.6550293 C71.63446886 308.36894569 70.71010496 317.21670707 68.28979492 326.68237305 C68.12882324 327.32142578 67.96785156 327.96047852 67.80200195 328.61889648 C64.00447426 343.2764049 57.37129926 357.28588988 47.28979492 368.68237305 C46.61432617 369.47643555 45.93885742 370.27049805 45.24291992 371.08862305 C29.93886461 388.67200574 7.45039674 406.24281886 -15.71020508 411.68237305 C-17.08971767 412.14838882 -18.46469024 412.62802473 -19.83520508 413.11987305 C-26.01207758 415.19330477 -32.32690118 416.72109854 -38.66772461 418.19604492 C-40.51102883 418.63494786 -42.34391755 419.11704739 -44.17504883 419.60424805 C-69.3268965 425.49617258 -99.08461909 422.75513045 -123.71020508 415.68237305 C-125.49297852 415.18350586 -125.49297852 415.18350586 -127.31176758 414.67456055 C-132.74620859 413.08795363 -137.80056608 411.35945454 -142.78051758 408.6628418 C-144.89863481 407.58663243 -147.03938123 406.80399529 -149.27270508 405.99487305 C-169.04077835 398.20285644 -187.88773732 382.55695999 -201.33911133 366.2878418 C-202.80494368 364.49307058 -202.80494368 364.49307058 -205.21020508 362.49487305 C-205.70520508 361.89674805 -206.20020508 361.29862305 -206.71020508 360.68237305 C-206.25070923 356.77793471 -204.89421617 353.34628755 -203.42895508 349.7175293 C-203.18748245 349.11599533 -202.94600983 348.51446136 -202.69721985 347.8946991 C-201.8723699 345.84305709 -201.04126695 343.7940059 -200.21020508 341.74487305 C-199.61306676 340.26357975 -199.01632042 338.7821284 -198.41992188 337.30053711 C-197.02873189 333.84690814 -195.63462089 330.3944732 -194.23901367 326.94262695 C-191.54199455 320.26963622 -188.85472204 313.59273031 -186.16743851 306.91581535 C-183.9038468 301.29212461 -181.63897431 295.66894949 -179.37399292 290.04581833 C-178.80643949 288.63678479 -178.23891426 287.22773988 -177.67141724 285.81868362 C-176.0314862 281.7470347 -174.39070794 277.67572905 -172.74870872 273.60491371 C-171.99995698 271.7481417 -171.25195928 269.89106567 -170.50398254 268.03398132 C-168.29439239 262.55830386 -166.06901686 257.09558782 -163.71020508 251.68237305 C-162.05932282 254.65473315 -161.2869646 257.26253043 -160.74536133 260.61206055 C-160.58648437 261.56653076 -160.42760742 262.52100098 -160.26391602 263.50439453 C-160.10181641 264.51187744 -159.9397168 265.51936035 -159.77270508 266.55737305 C-158.31025031 275.32728187 -156.69344713 284.01320133 -154.71020508 292.68237305 C-153.33315523 289.18317624 -151.95883795 285.68291252 -150.58520508 282.18237305 C-149.97213501 280.62268799 -149.97213501 280.62268799 -149.34667969 279.03149414 C-147.47111312 274.24505712 -145.61016103 269.45678443 -143.84692383 264.62768555 C-143.57702637 263.88969727 -143.30712891 263.15170898 -143.02905273 262.39135742 C-142.5341505 261.02774042 -142.04529096 259.66191136 -141.56323242 258.29370117 C-139.92862002 253.79158052 -139.92862002 253.79158052 -137.71020508 252.68237305 C-137.56510498 253.46547852 -137.42000488 254.24858398 -137.27050781 255.05541992 C-130.88996346 289.45000598 -130.88996346 289.45000598 -117.71020508 321.68237305 C-117.38906738 322.28758789 -117.06792969 322.89280273 -116.73706055 323.51635742 C-112.69349299 331.07804603 -108.3089481 338.15447693 -102.71020508 344.68237305 C-102.0218457 345.4919043 -101.33348633 346.30143555 -100.62426758 347.13549805 C-77.19695952 373.93305042 -41.59961082 391.89169522 -5.91601562 394.35717773 C0.11877023 394.56290148 4.85091898 394.08845333 9.85229492 390.36987305 C24.3302968 376.40894266 32.16011829 357.46760292 32.58251953 337.44995117 C32.73059954 317.19406916 26.94501122 300.98341579 13.28979492 285.68237305 C12.63624023 284.94631836 11.98268555 284.21026367 11.30932617 283.4519043 C0.52896001 272.02431165 -12.91563017 263.93632763 -26.71020508 256.68237305 C-27.86907227 256.06233398 -29.02793945 255.44229492 -30.22192383 254.8034668 C-48.25620827 245.36424558 -67.4087005 237.66662743 -86.33447266 230.22412109 C-91.36543922 228.24241957 -96.2879262 226.10386004 -101.18286133 223.8034668 C-103.9430614 222.57908129 -106.74248132 221.57495951 -109.58520508 220.55737305 C-123.45806261 215.29697133 -137.22473434 208.09727356 -148.71020508 198.68237305 C-149.77395109 197.84376025 -150.83775673 197.00522308 -151.90161133 196.16674805 C-173.08058466 179.1730626 -186.22250781 155.60609217 -189.71020508 128.68237305 C-192.30641923 99.73402813 -182.82595197 71.47875579 -164.58911133 49.03393555 C-151.23077927 33.19591311 -134.93003644 18.89184875 -115.71020508 10.68237305 C-114.39020508 10.68237305 -113.07020508 10.68237305 -111.71020508 10.68237305 C-111.71020508 10.02237305 -111.71020508 9.36237305 -111.71020508 8.68237305 C-94.24616641 2.4220622 -94.24616641 2.4220622 -86.88598633 0.32299805 C-85.25428404 -0.15743135 -83.64318405 -0.70876369 -82.04614258 -1.29418945 C-57.04546454 -8.9641867 -24.79444128 -7.99500463 0 0 Z " fill="#010101" transform="translate(387.710205078125,313.317626953125)"/>
<path d="M0 0 C2.45053906 0.84981325 4.82510204 1.4498718 7.36328125 1.96875 C14.6722556 3.51308702 21.1784334 6.00720433 27.765625 9.52734375 C30.25843319 10.73442371 32.72316569 11.72333202 35.30859375 12.70703125 C40.72798987 14.8481822 45.59379412 17.61204487 50.55078125 20.65625 C51.41670898 21.18412109 52.28263672 21.71199219 53.17480469 22.25585938 C68.29615361 31.55869 68.29615361 31.55869 71.61328125 34.90625 C71.61328125 38.90625 71.61328125 38.90625 70.00390625 40.6875 C69.2975 41.2546875 68.59109375 41.821875 67.86328125 42.40625 C65.52428613 44.3278626 63.35494957 46.17137988 61.23828125 48.34375 C59.61328125 49.90625 59.61328125 49.90625 57.61328125 49.90625 C57.36707031 50.47214844 57.12085938 51.03804688 56.8671875 51.62109375 C55.39791901 54.29873258 53.6357569 56.23668612 51.55078125 58.46875 C33.86672134 77.87601702 14.06910515 105.36934323 9.61328125 131.90625 C8.95328125 131.90625 8.29328125 131.90625 7.61328125 131.90625 C7.4932373 131.32359375 7.37319336 130.7409375 7.24951172 130.140625 C1.85020567 104.29709803 -6.90725306 80.20406603 -24.38671875 59.90625 C-25.13695312 59.01808594 -25.8871875 58.12992187 -26.66015625 57.21484375 C-43.53033502 37.82893656 -68.75919784 19.55541924 -95.296875 17.703125 C-103.1276607 17.58668209 -109.92532682 18.54244815 -117.38671875 20.90625 C-118.24007812 21.16148437 -119.0934375 21.41671875 -119.97265625 21.6796875 C-133.0788807 26.18624417 -143.19710129 37.22360054 -149.20703125 49.46875 C-156.92462573 66.76809221 -158.09135126 85.01339173 -151.38671875 102.90625 C-141.51257225 125.15864932 -122.89088972 138.02908868 -101.69921875 148.28125 C-100.15041016 149.03112183 -100.15041016 149.03112183 -98.5703125 149.79614258 C-92.50663707 152.65199099 -86.44086373 154.99148922 -80.05615234 157.02563477 C-77.86537584 157.74834657 -75.7915952 158.53532259 -73.6875 159.47265625 C-69.72124692 161.19527741 -65.68605356 162.51709895 -61.57421875 163.84375 C-55.98232035 165.67638424 -50.48331174 167.58724726 -45.05078125 169.85546875 C-42.19417411 170.98219503 -39.30848988 171.9746307 -36.40258789 172.96533203 C-28.57306337 175.64255227 -21.10698172 178.72475808 -13.66015625 182.328125 C-11.1285313 183.54862199 -8.59970599 184.69052741 -6.01171875 185.78125 C21.93104157 198.17691059 45.71589461 215.51936338 61.61328125 241.90625 C61.96447021 242.48084961 62.31565918 243.05544922 62.67749023 243.64746094 C66.46532716 250.0170662 68.5430997 256.84735776 70.61328125 263.90625 C70.938125 264.98003906 71.26296875 266.05382812 71.59765625 267.16015625 C76.4283421 286.4601134 75.5665012 308.313543 68.61328125 326.90625 C68.15894862 328.25262597 67.70843355 329.60029611 67.26171875 330.94921875 C62.41448351 345.15402444 55.66857762 358.68173312 45.61328125 369.90625 C44.9275 370.710625 44.24171875 371.515 43.53515625 372.34375 C33.93029216 383.39970866 23.54825362 392.1111246 11.20068359 399.89160156 C9.92764755 400.70531085 8.68149797 401.56101663 7.4453125 402.4296875 C1.4064191 406.61558712 -5.60688143 408.73562645 -12.47412109 411.18676758 C-14.27794647 411.86533196 -16.0436407 412.64287016 -17.8046875 413.42578125 C-22.01512848 415.16597442 -26.22921276 416.34414302 -30.63671875 417.46875 C-31.4786377 417.68563477 -32.32055664 417.90251953 -33.18798828 418.12597656 C-48.17098819 421.93017496 -62.8096859 423.10441908 -78.26171875 423.09375 C-79.48463623 423.09294434 -80.70755371 423.09213867 -81.9675293 423.09130859 C-91.81506931 423.02454561 -101.4015438 422.63236123 -110.921875 419.88671875 C-113.9920397 419.01793483 -116.85594669 418.49822219 -120.01171875 418.09375 C-126.90668799 416.98884189 -132.95900309 414.55989408 -139.38671875 411.90625 C-140.57265625 411.4628125 -141.75859375 411.019375 -142.98046875 410.5625 C-163.15836566 402.93220285 -180.13251012 390.89796805 -196.38671875 376.90625 C-195.95640567 373.37093278 -194.27744097 371.38845672 -191.99682617 368.74682617 C-174.6445526 348.58340686 -166.6541065 323.63859815 -162.38671875 297.90625 C-162.15826815 296.57279379 -161.92917477 295.23944742 -161.69921875 293.90625 C-161.24673556 291.2416268 -160.80682421 288.57613078 -160.38671875 285.90625 C-159.72671875 286.23625 -159.06671875 286.56625 -158.38671875 286.90625 C-158.01271089 289.23341 -157.67907142 291.56742862 -157.38671875 293.90625 C-157.05671875 294.23625 -156.72671875 294.56625 -156.38671875 294.90625 C-156.07444336 293.94847656 -155.76216797 292.99070312 -155.44042969 292.00390625 C-154.26880128 288.41605747 -153.08895498 284.83095441 -151.90673828 281.24658203 C-151.39834317 279.70140905 -150.89211374 278.15552163 -150.38818359 276.60888672 C-149.65915292 274.37271145 -148.92210506 272.13930961 -148.18359375 269.90625 C-147.96362732 269.22570557 -147.74366089 268.54516113 -147.51702881 267.84399414 C-145.88542914 262.94695373 -143.77387259 258.48386335 -141.38671875 253.90625 C-139.55420136 257.3821006 -138.7795871 260.46206036 -138.07421875 264.34375 C-132.17760817 295.27577291 -123.07073709 323.52265114 -102.38671875 347.90625 C-101.835 348.59203125 -101.28328125 349.2778125 -100.71484375 349.984375 C-87.74152898 365.6759081 -67.5279981 378.14107422 -48.38671875 384.90625 C-47.15501953 385.39158203 -47.15501953 385.39158203 -45.8984375 385.88671875 C-31.11026649 391.60481154 -11.65641815 397.52172104 3.95703125 391.6484375 C6.53545059 389.93744935 8.50560968 388.16567392 10.61328125 385.90625 C11.2990625 385.2771875 11.98484375 384.648125 12.69140625 384 C25.73874685 371.05225742 30.87220602 351.72228435 31.17578125 333.84375 C31.04388085 316.21137234 23.76981981 301.31456698 12.61328125 287.90625 C12.154375 287.31328125 11.69546875 286.7203125 11.22265625 286.109375 C-2.6799446 268.69117393 -24.98739373 258.67783889 -44.38671875 248.90625 C-45.13445557 248.52033691 -45.88219238 248.13442383 -46.65258789 247.73681641 C-50.99133637 245.51146679 -55.36291099 243.68093013 -59.94921875 242.03125 C-61.35073021 241.515598 -62.75176094 240.99863779 -64.15234375 240.48046875 C-64.85552734 240.22056152 -65.55871094 239.9606543 -66.28320312 239.69287109 C-73.89714771 236.84559516 -81.45812727 233.84742408 -88.82421875 230.40625 C-93.25292676 228.35006414 -97.74775138 226.59748319 -102.32421875 224.90625 C-113.81917244 220.64751247 -124.6817815 215.92696622 -135.38671875 209.90625 C-136.39863281 209.349375 -137.41054688 208.7925 -138.453125 208.21875 C-160.73934018 195.66640977 -178.55540922 178.66390275 -188.38671875 154.90625 C-188.69013184 154.19355957 -188.99354492 153.48086914 -189.30615234 152.74658203 C-193.834287 141.67916604 -194.94067592 130.90881182 -194.94921875 119.03125 C-194.95179688 117.74855225 -194.954375 116.46585449 -194.95703125 115.14428711 C-194.39185195 82.86465342 -179.26153183 56.56800996 -156.8359375 34.3828125 C-144.06098377 22.36585168 -128.80339217 12.55623378 -112.24487305 6.61669922 C-110.16576668 5.85852164 -110.16576668 5.85852164 -107.42578125 4.40625 C-76.85327614 -10.68352116 -31.76581088 -11.10751533 0 0 Z " fill="#020202" transform="translate(631.38671875,315.09375)"/>
<path d="M0 0 C0.92053162 0.00087616 1.84106323 0.00175232 2.78948975 0.00265503 C31.47667832 0.09239371 60.2988137 4.17507702 85.69775391 18.3203125 C87.73927855 19.43753906 89.80626298 20.48844323 91.88671875 21.53125 C101.44536964 26.36399961 110.09651683 31.90092165 118.625 38.375 C116.5385059 43.01165357 113.48252847 47.10833744 110.55078125 51.2421875 C108.14939341 54.60411108 108.14939341 54.60411108 108.0390625 58.546875 C110.07785425 60.89700933 112.28368423 62.72783403 114.75 64.625 C115.66007812 65.33140625 116.57015625 66.0378125 117.5078125 66.765625 C118.20648437 67.29671875 118.90515625 67.8278125 119.625 68.375 C117.671875 72.28125 115.71875 76.1875 113.765625 80.09375 C113.41298584 80.80144531 113.06034668 81.50914062 112.69702148 82.23828125 C111.98558844 83.65628671 111.26639936 85.07042881 110.53930664 86.48046875 C108.54125512 90.37910585 106.87863824 94.18158986 105.5625 98.375 C104.52009993 101.66773155 103.43241526 104.91927908 102.19921875 108.14453125 C100.46113362 112.73106903 98.96960365 117.38413864 97.5 122.0625 C97.23574219 122.89072266 96.97148438 123.71894531 96.69921875 124.57226562 C95.46544236 128.4833994 94.30211787 132.32055032 93.625 136.375 C92.965 136.375 92.305 136.375 91.625 136.375 C90.3500346 132.27689691 89.42464318 128.30311428 88.75 124.0625 C87.92643523 119.27264728 86.49275564 115.0992184 84.52734375 110.6640625 C83.57532026 108.24897261 83.06272077 105.92912325 82.625 103.375 C81.965 103.375 81.305 103.375 80.625 103.375 C80.44710937 104.44234375 80.44710937 104.44234375 80.265625 105.53125 C79.59302207 108.5169508 78.59291019 111.06918159 77.375 113.875 C75.49444166 118.2828983 73.70478605 122.70856209 72 127.1875 C70.30624671 131.63293451 68.54753681 136.02399565 66.625 140.375 C63.84996193 137.59996193 63.32717056 134.37299327 62.3125 130.6875 C61.86630723 129.13231687 61.41835713 127.57763697 60.96875 126.0234375 C60.74316406 125.2406543 60.51757812 124.45787109 60.28515625 123.65136719 C50.51594044 89.96491444 30.70367581 62.09242248 1.625 42.375 C1.04975586 41.97152344 0.47451172 41.56804687 -0.11816406 41.15234375 C-19.81785453 27.45410804 -45.36353573 21.11924882 -69.14453125 24.98828125 C-91.29358569 31.0678887 -109.23349061 52.24818037 -120.375 71.375 C-131.34534388 91.30335161 -138.57211458 112.9838729 -142.375 135.375 C-142.55546875 136.37917969 -142.7359375 137.38335937 -142.921875 138.41796875 C-146.24565536 157.21529418 -146.87757115 175.36234685 -146.375 194.375 C-146.31030518 193.69848389 -146.24561035 193.02196777 -146.17895508 192.32495117 C-144.56344542 175.81347176 -142.24686535 159.58777101 -138.96728516 143.32373047 C-138.45270543 140.76186159 -137.96271475 138.19699136 -137.48046875 135.62890625 C-130.74178406 101.16334185 -116.1648965 66.61837021 -91.375 41.375 C-90.6325 40.61703125 -89.89 39.8590625 -89.125 39.078125 C-87.55579992 37.49627008 -85.96814234 35.93273918 -84.375 34.375 C-84.375 38.33903171 -85.85248062 39.9947032 -88 43.3125 C-95.22895922 54.7804468 -100.10126652 66.56387912 -104.375 79.375 C-104.8390625 80.74591797 -104.8390625 80.74591797 -105.3125 82.14453125 C-105.77396573 83.51691112 -106.23041906 84.89100334 -106.6784668 86.26782227 C-107.12236162 87.61070913 -107.57951134 88.94933786 -108.05395508 90.28173828 C-110.35085721 96.82528411 -111.89392202 103.4812054 -113.375 110.25 C-113.63700195 111.44455811 -113.89900391 112.63911621 -114.16894531 113.86987305 C-119.60653666 139.06867355 -121.78968353 164.10544825 -121.75 189.875 C-121.75078552 190.96964569 -121.75157104 192.06429138 -121.75238037 193.19210815 C-121.73210306 216.98666599 -120.52061814 241.06878025 -115.375 264.375 C-115.1589209 265.40294678 -114.9428418 266.43089355 -114.72021484 267.48999023 C-113.99454165 270.93407798 -113.24888476 274.37339076 -112.5 277.8125 C-112.13455078 279.53823242 -112.13455078 279.53823242 -111.76171875 281.29882812 C-110.35198203 287.74490404 -108.62419493 293.85024087 -106.26757812 300.01391602 C-105.19799713 302.8432152 -104.37052316 305.71134013 -103.5625 308.625 C-101.23506326 316.25431966 -97.98932363 323.29180517 -94.375 330.375 C-94.01132324 331.08849609 -93.64764648 331.80199219 -93.27294922 332.53710938 C-81.24710601 355.80372592 -66.27967911 374.34961766 -43.375 387.375 C-44.95848217 391.73216337 -48.35429347 394.19807138 -51.8125 397.0625 C-52.43995117 397.59069336 -53.06740234 398.11888672 -53.71386719 398.66308594 C-55.59436366 400.24178613 -57.48300698 401.8101059 -59.375 403.375 C-60.37144531 404.20128906 -61.36789062 405.02757812 -62.39453125 405.87890625 C-68.34044216 410.77003468 -74.35406492 415.57674628 -80.375 420.375 C-81.16648437 421.10847656 -81.95796875 421.84195312 -82.7734375 422.59765625 C-87.32633167 425.70811698 -92.07119563 424.64366613 -97.32910156 423.79980469 C-103.90947785 422.43347357 -110.15055248 419.85290506 -116.375 417.375 C-117.4371875 416.97023438 -118.499375 416.56546875 -119.59375 416.1484375 C-136.72974114 409.37695713 -152.59364026 399.59029614 -166.375 387.375 C-164.67794422 383.75394826 -162.62410667 381.42690679 -159.8125 378.5625 C-154.33459525 372.62678764 -150.29107585 366.29444811 -146.40234375 359.23632812 C-145.44651938 357.50457789 -144.45884937 355.79050998 -143.46875 354.078125 C-128.18527887 326.05842794 -126.97283859 292.77241384 -135.4375 262.5859375 C-146.3246389 229.09286436 -173.53503153 207.06458213 -203.875 191.58984375 C-204.7 191.18894531 -205.525 190.78804687 -206.375 190.375 C-205.30268257 139.5861471 -175.96624056 87.02266639 -140.2890625 52.34765625 C-138.36430776 50.62187405 -136.39443986 48.98909117 -134.375 47.375 C-133.44558594 46.61960937 -132.51617188 45.86421875 -131.55859375 45.0859375 C-120.84574437 36.52406023 -109.27353341 29.38088399 -97.25 22.8125 C-96.64687988 22.47782715 -96.04375977 22.1431543 -95.42236328 21.79833984 C-91.75455707 19.84676685 -88.50088962 18.83273547 -84.375 18.375 C-84.375 17.715 -84.375 17.055 -84.375 16.375 C-80.11264287 15.01780841 -75.84823738 13.66729509 -71.58203125 12.32226562 C-70.13877938 11.86630021 -68.6960473 11.40868542 -67.25390625 10.94921875 C-44.74845344 3.78267791 -23.68670334 -0.05533652 0 0 Z " fill="#020202" transform="translate(842.375,308.625)"/>
<path d="M0 0 C1.72283203 0.81791016 1.72283203 0.81791016 3.48046875 1.65234375 C37.27327132 17.90384422 62.18955263 45.94838229 75 81 C75.2592627 81.70535889 75.51852539 82.41071777 75.78564453 83.13745117 C77.79714096 88.86029125 79.04566967 94.60027927 80.125 100.5625 C80.29386719 101.45646484 80.46273438 102.35042969 80.63671875 103.27148438 C82.595696 113.81448398 83.23980301 123.9760067 83.25 134.6875 C83.25100708 135.42032196 83.25201416 136.15314392 83.25305176 136.90817261 C83.23714179 154.06683621 81.13236299 170.20426754 76.59326172 186.77099609 C75.92191154 189.2933941 75.30525952 191.82628856 74.69140625 194.36328125 C70.04433689 213.31669705 63.18679377 231.08023039 55.02099609 248.77734375 C53.99468112 251.01157892 52.99102196 253.25510152 51.98828125 255.5 C46.3782514 267.87943955 39.68355096 279.53120499 32.69287109 291.17724609 C31.15426466 293.74277358 29.63168715 296.31701993 28.11328125 298.89453125 C13.42533939 323.61190619 13.42533939 323.61190619 5.35742188 331.63305664 C3.1828495 335.42486945 3.53220725 339.26970439 3.53125 343.56640625 C3.52363647 344.51450668 3.51602295 345.46260712 3.50817871 346.43943787 C3.49736831 348.45430884 3.49452841 350.4692359 3.49902344 352.48413086 C3.49998024 355.50020614 3.45869909 358.51359939 3.4140625 361.52929688 C3.30995442 378.41454816 6.64150048 393.07254732 13.08203125 408.62890625 C14 411 14 411 14 413 C12.6105957 414.09741211 12.6105957 414.09741211 10.67578125 415.27734375 C9.97646484 415.70853516 9.27714844 416.13972656 8.55664062 416.58398438 C7.81607422 417.03064453 7.07550781 417.47730469 6.3125 417.9375 C5.59126953 418.38029297 4.87003906 418.82308594 4.12695312 419.27929688 C2.72243856 420.13996288 1.31512107 420.9960747 -0.09521484 421.84716797 C-1.70459536 422.82121242 -3.30110178 423.81648088 -4.89453125 424.81640625 C-7 426 -7 426 -9 426 C-9 426.66 -9 427.32 -9 428 C-31.38724346 440.62089516 -31.38724346 440.62089516 -41.24609375 444.03515625 C-43.90756266 444.96761415 -46.46125164 446.06771149 -49.04663086 447.19018555 C-61.21278707 452.2339476 -73.93917498 455.6971066 -86.80297852 458.40185547 C-91.79989688 459.43201801 -91.79989688 459.43201801 -96.60546875 461.09765625 C-100.12100606 462.42243458 -103.58380984 462.46505619 -107.3125 462.625 C-108.05306641 462.66367187 -108.79363281 462.70234375 -109.55664062 462.7421875 C-111.37071309 462.83581705 -113.18532116 462.91896851 -115 463 C-115 462.34 -115 461.68 -115 461 C-113.52855732 459.71211757 -111.9954285 458.49429673 -110.4375 457.3125 C-106.5889248 454.31375083 -103.1070829 451.22677431 -99.71875 447.7265625 C-95.89259315 443.88301403 -91.76192099 440.33218417 -87.4375 437.0625 C-85.3179183 435.26900779 -83.69552039 433.54008379 -81.91015625 431.43359375 C-77.11640994 425.90446091 -71.88678173 420.8383458 -66.671875 415.7109375 C-62.42801615 411.51038334 -58.37495955 407.23061283 -54.48339844 402.70166016 C-52.78927789 400.75827302 -50.9947361 398.96167181 -49.125 397.1875 C-44.98433498 393.13579458 -41.44212284 388.68885437 -37.8828125 384.125 C-37.26148438 383.42375 -36.64015625 382.7225 -36 382 C-35.34 382 -34.68 382 -34 382 C-33.76410156 381.44441406 -33.52820313 380.88882812 -33.28515625 380.31640625 C-31.6872248 377.43624409 -29.694995 375.33630924 -27.4375 372.9375 C-18.34734471 363.13381109 -10.22355794 352.52922839 -2 342 C-7.06953175 347.06953175 -11.71596723 352.59179202 -16.1875 358.1875 C-21.44721128 364.68425139 -27.17529551 370.71118036 -32.91943359 376.77587891 C-34.43531175 378.39634945 -35.93628637 380.03079989 -37.42822266 381.67333984 C-46.04115992 391.15430037 -55.06126187 400.21376044 -64.12841797 409.25878906 C-66.76255982 411.88753409 -69.39126504 414.52163178 -72.01953125 417.15625 C-73.71582503 418.85188349 -75.4124287 420.54720703 -77.109375 422.2421875 C-78.27058868 423.40643753 -78.27058868 423.40643753 -79.45526123 424.59420776 C-83.58307519 428.70447349 -87.78747764 432.6548811 -92.22076416 436.43484497 C-94.06102647 438.05368365 -95.78441812 439.7502684 -97.5 441.5 C-100.44600215 444.49234375 -103.52983007 447.25324172 -106.7109375 449.9921875 C-108.93542915 451.94336277 -111.11114833 453.94124101 -113.2800293 455.95385742 C-118.40453954 460.70609163 -123.64051496 465.23493928 -129.0859375 469.62109375 C-132.43982919 472.35905627 -135.72176575 475.17234557 -139 478 C-144.92211385 483.09888897 -150.92668648 488.08163744 -157 493 C-158.41296648 494.14818397 -159.82571021 495.29664208 -161.23828125 496.4453125 C-165.15744652 499.63194359 -169.07823387 502.81657052 -173 506 C-176.63292317 504.65152264 -179.79931903 503.01515006 -183.08203125 500.9609375 C-184.01337891 500.38085938 -184.94472656 499.80078125 -185.90429688 499.203125 C-187.34385742 498.29820312 -187.34385742 498.29820312 -188.8125 497.375 C-189.79154297 496.76398437 -190.77058594 496.15296875 -191.77929688 495.5234375 C-194.18845472 494.01918285 -196.59524068 492.5112726 -199 491 C-195.35284043 487.25775619 -191.5489705 483.81313128 -187.5625 480.4375 C-186.65105225 479.66031616 -186.65105225 479.66031616 -185.72119141 478.86743164 C-183.20967738 476.72601846 -180.6941232 474.58938148 -178.17822266 472.453125 C-170.96247635 466.32181469 -163.85050803 460.11466524 -156.9140625 453.66796875 C-154.65866073 451.60303657 -152.38354063 449.5782105 -150.078125 447.5703125 C-138.4038206 437.38725136 -127.39875799 426.50052767 -116.4375 415.5625 C-115.87315247 415.00074066 -115.30880493 414.43898132 -114.72735596 413.86019897 C-109.1641734 408.31715015 -103.65290719 402.77195594 -98.55004883 396.79516602 C-95.84559695 393.66304527 -92.97099048 390.69044729 -90.125 387.6875 C-85.29146533 382.54765042 -80.67437054 377.31704566 -76.26953125 371.80078125 C-74.10049886 369.12402356 -71.87193286 366.51518629 -69.61425781 363.91357422 C-63.45795123 356.81774319 -57.62087672 349.5269661 -52 342 C-51.49275391 341.32404785 -50.98550781 340.6480957 -50.46289062 339.95166016 C-36.55617338 321.3886018 -23.05440761 302.58744451 -11.43994141 282.49023438 C-9.96510009 279.93964411 -8.47335485 277.39943803 -6.98046875 274.859375 C-0.24287158 263.3149129 5.89895269 251.53884525 11.75854492 239.52685547 C13.04301867 236.91243988 14.35642715 234.31379113 15.671875 231.71484375 C18.2280994 226.6068892 20.27319448 221.4020477 22.24169922 216.04248047 C23.09221371 213.75162271 23.97026077 211.47209922 24.84765625 209.19140625 C41.97173726 164.12517399 51.35769437 113.56196673 31 68 C26.48519416 58.57066395 20.52519292 50.14163416 14 42 C13.42636719 41.27167969 12.85273437 40.54335938 12.26171875 39.79296875 C2.41359524 27.87650426 -11.59937825 18.50692936 -25 11 C-25.73089844 10.58105469 -26.46179688 10.16210938 -27.21484375 9.73046875 C-51.46992978 -3.32996219 -80.24317689 -6.22681585 -107.3125 -6.3125 C-108.58883804 -6.31742462 -108.58883804 -6.31742462 -109.89096069 -6.32244873 C-130.50593036 -6.34800139 -151.90871591 -4.82738523 -171.75 1.125 C-174.98935133 1.99713305 -177.66393696 2.16273478 -181 2 C-178.50460669 -0.49539331 -176.79755372 -0.67067467 -173.375 -1.4375 C-169.16299517 -2.38493039 -165.26840887 -3.65364499 -161.24121094 -5.20385742 C-156.89091079 -6.74920914 -152.4146126 -7.82616517 -147.9375 -8.9375 C-146.37769409 -9.3255481 -146.37769409 -9.3255481 -144.78637695 -9.72143555 C-137.46031278 -11.49981016 -130.11368359 -13.01658584 -122.6875 -14.3125 C-121.32129517 -14.55117798 -121.32129517 -14.55117798 -119.92749023 -14.79467773 C-80.3259532 -21.38465784 -36.12646059 -18.31570238 0 0 Z " fill="#030303" transform="translate(954,275)"/>
<path d="M0 0 C0 3.96403171 -1.47748062 5.6197032 -3.625 8.9375 C-10.85395922 20.4054468 -15.72626652 32.18887912 -20 45 C-20.309375 45.91394531 -20.61875 46.82789063 -20.9375 47.76953125 C-21.39896573 49.14191112 -21.85541906 50.51600334 -22.3034668 51.89282227 C-22.74736162 53.23570913 -23.20451134 54.57433786 -23.67895508 55.90673828 C-25.97585721 62.45028411 -27.51892202 69.1062054 -29 75.875 C-29.26200195 77.06955811 -29.52400391 78.26411621 -29.79394531 79.49487305 C-35.23153666 104.69367355 -37.41468353 129.73044825 -37.375 155.5 C-37.37578552 156.59464569 -37.37657104 157.68929138 -37.37738037 158.81710815 C-37.35710306 182.61166599 -36.14561814 206.69378025 -31 230 C-30.7839209 231.02794678 -30.5678418 232.05589355 -30.34521484 233.11499023 C-29.61954165 236.55907798 -28.87388476 239.99839076 -28.125 243.4375 C-27.88136719 244.58798828 -27.63773438 245.73847656 -27.38671875 246.92382812 C-25.97698203 253.36990404 -24.24919493 259.47524087 -21.89257812 265.63891602 C-20.82299713 268.4682152 -19.99552316 271.33634013 -19.1875 274.25 C-16.86006326 281.87931966 -13.61432363 288.91680517 -10 296 C-9.63632324 296.71349609 -9.27264648 297.42699219 -8.89794922 298.16210938 C3.12789399 321.42872592 18.09532089 339.97461766 41 353 C39.41651783 357.35716337 36.02070653 359.82307138 32.5625 362.6875 C31.93504883 363.21569336 31.30759766 363.74388672 30.66113281 364.28808594 C28.78063634 365.86678613 26.89199302 367.4351059 25 369 C23.50533203 370.23943359 23.50533203 370.23943359 21.98046875 371.50390625 C16.03455784 376.39503468 10.02093508 381.20174628 4 386 C3.20851563 386.73347656 2.41703125 387.46695312 1.6015625 388.22265625 C-2.95133167 391.33311698 -7.69619563 390.26866613 -12.95410156 389.42480469 C-19.53447785 388.05847357 -25.77555248 385.47790506 -32 383 C-33.0621875 382.59523438 -34.124375 382.19046875 -35.21875 381.7734375 C-52.35474114 375.00195713 -68.21864026 365.21529614 -82 353 C-80.30294422 349.37894826 -78.24910667 347.05190679 -75.4375 344.1875 C-69.95959525 338.25178764 -65.91607585 331.91944811 -62.02734375 324.86132812 C-61.07151938 323.12957789 -60.08384937 321.41550998 -59.09375 319.703125 C-43.85280384 291.76139037 -42.45882755 258.27333748 -51.09765625 228.17578125 C-52.92397298 222.64730382 -54.98501834 217.97703913 -58.20678711 213.12133789 C-65.60703234 201.43355822 -63.78941662 188.29096476 -63 175 C-62.93377441 173.68451172 -62.86754883 172.36902344 -62.79931641 171.01367188 C-61.08300826 137.8940574 -56.11620159 103.3352894 -45 72 C-44.70689941 71.1632373 -44.41379883 70.32647461 -44.11181641 69.46435547 C-34.44596768 42.42814719 -20.52581619 20.0224583 0 0 Z " fill="#414040" transform="translate(758,343)"/>
<path d="M0 0 C0.66 0 1.32 0 2 0 C2.24234375 1.03898438 2.4846875 2.07796875 2.734375 3.1484375 C8.50482332 27.40763538 20.66924201 45.81302096 42.08496094 59.31445312 C52.29137325 65.49932948 62.68949118 70.2545702 74 74 C74.7223584 74.2470166 75.4447168 74.4940332 76.18896484 74.74853516 C119.04016818 89.36552588 162.25722913 88.32820296 207 88 C206.67 88.66 206.34 89.32 206 90 C202.60889518 90.76602717 199.0870373 90.87045384 195.625 91.125 C193.94229004 91.2502002 193.94229004 91.2502002 192.22558594 91.37792969 C163.97870397 93.2034338 132.66540965 95.01384481 105.09375 87.765625 C101.62325904 86.90676613 98.15576467 86.37225537 94.625 85.8125 C87.44968243 84.58216434 80.68019616 82.387568 73.8125 80 C72.32387451 79.48336792 72.32387451 79.48336792 70.80517578 78.95629883 C66.23700427 77.32223576 62.07267599 75.68354619 58 73 C56.989375 72.5875 55.97875 72.175 54.9375 71.75 C38.96869022 65.04448247 23.10260725 53.20989676 13 39 C29.42380877 66.77788878 56.50034549 83.28279771 87 92 C93.98423703 93.73188139 101.02696141 95.18094401 108.0925293 96.53857422 C110 97 110 97 111 98 C126.62036371 101.46502526 142.71739407 101.48834654 158.625 101.375 C159.76442047 101.37101196 160.90384094 101.36702393 162.07778931 101.36291504 C179.25436883 101.29250134 196.00572284 100.62623969 213 98 C215.27860115 97.67156487 217.55724816 97.34344773 219.8359375 97.015625 C228.90877494 95.66191443 237.73266259 94.16896153 246.56469727 91.66015625 C249.41997123 90.88615517 252.25728805 90.39675648 255.1875 90 C259.28763434 89.35951807 262.84866576 88.47133153 266.66601562 86.87695312 C269.4653726 85.82514452 272.29317473 85.03901246 275.17578125 84.2421875 C282.86889285 82.06765712 290.48219783 79.67883312 298.08813477 77.21826172 C300.32596377 76.49565246 302.56622211 75.78094051 304.80664062 75.06640625 C312.0539033 72.73719204 319.11740262 70.27845811 326 67 C327.55723067 66.3619844 329.11868225 65.73396807 330.6875 65.125 C337.18475773 62.5565528 343.58593542 59.76786446 350 57 C351.17820312 56.50113281 352.35640625 56.00226562 353.5703125 55.48828125 C357.59158997 53.74328499 361.51682534 51.82623024 365.44921875 49.890625 C368.31710693 48.88927966 369.24864296 48.80718959 372 50 C373.18847656 52.08544922 373.18847656 52.08544922 374.140625 54.8046875 C374.48867188 55.78050781 374.83671875 56.75632812 375.1953125 57.76171875 C375.54335938 58.78910156 375.89140625 59.81648437 376.25 60.875 C376.61351562 61.89464844 376.97703125 62.91429687 377.3515625 63.96484375 C380 71.5218515 380 71.5218515 380 75 C373.21906178 78.78372101 366.5340628 82.35640312 359.2578125 85.10546875 C357.10949308 85.95661952 355.10768184 86.92772855 353.0625 88 C349.11200803 90.0387077 345.02567579 91.46822192 340.8359375 92.9375 C338.07626727 93.97142604 335.46769209 95.16173203 332.8125 96.4375 C327.67227146 98.83823711 322.44375782 100.54022987 317.0090332 102.12475586 C313.31101519 103.21661438 309.75599992 104.47271474 306.1875 105.9375 C300.89986235 108.09157338 295.53015988 109.80310947 290.0625 111.4375 C289.06105957 111.73897949 288.05961914 112.04045898 287.02783203 112.35107422 C277.73981842 115.12201055 268.40537517 117.66043885 259 120 C258.12005371 120.21930176 257.24010742 120.43860352 256.33349609 120.66455078 C247.11319256 122.94719184 237.92842603 125.19464714 228.52734375 126.60546875 C226.11493632 126.98205785 223.75850219 127.47345904 221.375 128 C216.7133325 128.95029177 212.03649672 129.53016231 207.3125 130.0625 C206.61882324 130.14177734 205.92514648 130.22105469 205.21044922 130.30273438 C160.94948101 135.06606715 114.98495061 132.76367471 73 117 C72.04222656 116.64679688 71.08445312 116.29359375 70.09765625 115.9296875 C55.16750598 110.07231716 41.18858757 102.43598021 29 92 C28.48356934 91.56574707 27.96713867 91.13149414 27.43505859 90.68408203 C15.5224251 80.60529444 7.39457456 69.14821402 1 55 C0.66097656 54.28328125 0.32195312 53.5665625 -0.02734375 52.828125 C-7.20274358 36.12122391 -4.6892806 16.91490504 0 0 Z " fill="#050505" transform="translate(178,849)"/>
<path d="M0 0 C0.93237488 -0.0127597 1.86474976 -0.02551941 2.82537842 -0.03866577 C3.83465393 -0.04089142 4.84392944 -0.04311707 5.88378906 -0.04541016 C7.45546844 -0.05539536 7.45546844 -0.05539536 9.05889893 -0.06558228 C11.28485357 -0.07572109 13.51083869 -0.08039892 15.73681641 -0.08007812 C19.09493588 -0.0844025 22.4516878 -0.12057303 25.80957031 -0.15869141 C42.4699611 -0.24680879 58.28161341 0.52489164 71.42285156 12.06787109 C79.94395932 20.85863416 81.0307263 30.89648903 80.94042969 42.64941406 C80.69799012 49.53791375 79.66181263 54.71662152 75.39941406 60.29052734 C74.93792969 60.98919922 74.47644531 61.68787109 74.00097656 62.40771484 C68.61498395 69.65283181 59.7919725 73.49300787 51.39941406 76.29052734 C49.97222769 76.37663248 48.54134758 76.40824562 47.11157227 76.40405273 C46.25090652 76.4039772 45.39024078 76.40390167 44.50349426 76.40382385 C43.57840561 76.39866257 42.65331696 76.39350128 41.70019531 76.38818359 C40.75001022 76.38676865 39.79982513 76.3853537 38.82084656 76.38389587 C35.78450377 76.3782961 32.74823458 76.36574366 29.71191406 76.35302734 C27.65397242 76.34801231 25.59602962 76.34344941 23.53808594 76.33935547 C18.4918336 76.32832674 13.44563631 76.31106227 8.39941406 76.29052734 C8.41273773 76.84318771 8.4260614 77.39584808 8.43978882 77.96525574 C8.57265962 83.72391454 8.66307709 89.48213726 8.72900391 95.24194336 C8.75915425 97.39056081 8.80008214 99.5390554 8.85205078 101.68725586 C8.92494179 104.77797758 8.95888794 107.86707094 8.98535156 110.95849609 C9.01631927 111.91700974 9.04728699 112.87552338 9.07919312 113.86308289 C9.08247401 120.38276386 9.08247401 120.38276386 7.09968567 123.01782227 C4.39953135 125.33883203 1.94740034 126.98966464 -1.66308594 126.91552734 C-6.33010899 126.17473003 -7.72462351 124.95084316 -10.60058594 121.29052734 C-11.78557975 118.92053972 -11.73393472 117.47613778 -11.74775696 114.83171082 C-11.75491226 113.89380203 -11.76206757 112.95589325 -11.7694397 111.98956299 C-11.7721286 110.95732605 -11.7748175 109.92508911 -11.77758789 108.86157227 C-11.78415909 107.77691177 -11.79073029 106.69225128 -11.79750061 105.57472229 C-11.81726479 101.97347959 -11.82890263 98.37227862 -11.83886719 94.77099609 C-11.84294271 93.54342402 -11.84701824 92.31585194 -11.85121727 91.0510807 C-11.86993653 85.22530443 -11.88449986 79.39954464 -11.89282924 73.573744 C-11.90260083 66.85031528 -11.92891779 60.12721587 -11.96933013 53.40390319 C-12.00313567 47.57973551 -12.0149748 41.75567827 -12.01903343 35.93142128 C-12.02391318 33.45425495 -12.03556634 30.97709248 -12.05407143 28.49999046 C-12.07834486 25.03561374 -12.07751909 21.57210123 -12.07055664 18.10766602 C-12.0833667 17.08150177 -12.09617676 16.05533752 -12.109375 14.99807739 C-12.0773379 10.63176225 -12.05031803 8.03551058 -9.75871277 4.23945618 C-6.42224589 1.22640967 -4.43887077 0.04134034 0 0 Z " fill="#040404" transform="translate(261.6005859375,763.70947265625)"/>
<path d="M0 0 C-0.92597818 4.31832356 -1.86635669 8.61675788 -3.0703125 12.8671875 C-8.07637973 31.31739562 -8.94711616 52.32251235 -1 70 C-0.72124023 70.63292969 -0.44248047 71.26585937 -0.15527344 71.91796875 C4.31395174 81.83638211 10.2475171 89.43769345 18 97 C18.71800781 97.72703125 19.43601562 98.4540625 20.17578125 99.203125 C41.4570017 119.56256001 74.92429076 130.02151668 101.98828125 139.71191406 C110.40924798 142.73492841 118.42440386 146.03146482 126.3828125 150.1640625 C128.90824557 151.46926426 131.45882296 152.67717888 134.0546875 153.8359375 C149.03292075 160.53850219 162.74404916 169.0173947 175 180 C175.7528125 180.6703125 176.505625 181.340625 177.28125 182.03125 C195.3028754 199.03757256 207.6673777 222.70741256 208.41455078 247.65185547 C208.53880999 262.05799266 206.93122396 276.42249502 202 290 C201.67 290 201.34 290 201 290 C199.57374434 282.58856436 198.69928135 275.55137932 199 268 C198.34 268 197.68 268 197 268 C196.90203125 266.79085938 196.8040625 265.58171875 196.703125 264.3359375 C194.19087059 235.85690465 182.78976972 210.16499823 161 191 C152.46083802 183.89812271 143.39470293 177.85497033 133.88525391 172.13427734 C132.14050489 171.08453584 130.40385905 170.02135789 128.66796875 168.95703125 C123.33833157 165.74830232 118.11539431 163.02447309 112.25390625 160.921875 C110 160 110 160 107.53125 158.5078125 C105.02546636 157.01516977 102.6923883 156.06407203 99.9375 155.125 C96.00360526 153.74026905 92.15065472 152.25647721 88.3125 150.625 C83.52242108 148.59794837 78.68998471 146.73965471 73.8125 144.9375 C69.67239497 143.40779561 65.56412659 141.86897676 61.5625 140 C58.28695738 138.48490819 54.96251143 137.28982064 51.54052734 136.14550781 C28.08261466 128.24813763 5.53981573 117.74924637 -12 100 C-12.76054687 99.24976563 -13.52109375 98.49953125 -14.3046875 97.7265625 C-19.64916379 92.14007219 -23.00471673 86.09828963 -26 79 C-26.41507813 78.06027344 -26.83015625 77.12054688 -27.2578125 76.15234375 C-33.37893656 59.90782221 -31.36606168 40.11778992 -24.45703125 24.515625 C-20.21979995 16.09933949 -10.89541914 0 0 0 Z " fill="#3E3E3E" transform="translate(262,341)"/>
<path d="M0 0 C3.10322311 2.39175245 4.76376754 5.29130262 6 9 C6.59167969 8.51789062 7.18335938 8.03578125 7.79296875 7.5390625 C8.58316406 6.90742187 9.37335937 6.27578125 10.1875 5.625 C10.96480469 4.99851562 11.74210938 4.37203125 12.54296875 3.7265625 C17.87286709 -0.01877147 22.41716094 -0.35822919 28.75 -0.3125 C29.55550293 -0.30686035 30.36100586 -0.3012207 31.19091797 -0.29541016 C40.89286702 -0.09692993 47.77109373 2.34316545 55 9 C55.99 10.485 55.99 10.485 57 12 C62.50879845 11.86228004 64.96538713 9.5929795 68.6796875 5.88671875 C74.71370314 0.98027169 80.23196436 -0.66582433 87.9375 -0.4375 C88.72946777 -0.42283691 89.52143555 -0.40817383 90.33740234 -0.39306641 C101.69864048 -0.02551759 108.52645705 3.89965316 116.75 11.5625 C123.22531252 19.97124789 123.60044894 31.64618779 123.53125 41.78125 C123.5350769 43.03836792 123.53890381 44.29548584 123.54284668 45.59069824 C123.54623292 48.89002396 123.53034927 52.18857019 123.5078125 55.48779297 C123.49734394 58.18410144 123.51669563 60.87988283 123.53577423 63.57611847 C123.55371222 66.81120765 123.5411586 70.04614438 123.53125 73.28125 C123.53934692 74.48334106 123.54744385 75.68543213 123.55578613 76.9239502 C123.46233266 85.21682646 123.46233266 85.21682646 121.09179688 89.23242188 C117.80742681 92.00772992 115.4388276 92.20952524 111.16796875 92.5234375 C108.55911295 91.89355159 106.92332731 90.81511918 105.07017517 88.87994385 C102.60606074 84.55130972 103.40783627 79.08873711 103.51171875 74.26171875 C103.51879349 73.02581497 103.52586823 71.78991119 103.53315735 70.51655579 C103.55637286 67.24288458 103.60123223 63.9704584 103.65667725 60.69720459 C103.70797807 57.35228951 103.73026715 54.00732004 103.75585938 50.66210938 C103.81095856 44.10758763 103.89461039 37.5538956 104 31 C103.34 31 102.68 31 102 31 C101.566875 30.113125 101.13375 29.22625 100.6875 28.3125 C100.130625 27.219375 99.57375 26.12625 99 25 C98.54625 24.0925 98.0925 23.185 97.625 22.25 C95.61003667 19.46005077 94.24997521 19.04348567 91 18 C84.09671294 17.09543135 78.35264768 17.34120282 72.61328125 21.48828125 C70.22876402 23.7226836 68.73251206 26.24081413 67 29 C66.01 29 65.02 29 64 29 C64.01332367 29.71552536 64.02664734 30.43105072 64.04037476 31.16825867 C64.16074534 37.92123609 64.25202086 44.67391294 64.31087303 51.42772198 C64.34214801 54.89979104 64.38454491 58.37097161 64.45263672 61.8425293 C64.53048251 65.83651098 64.55944881 69.82956392 64.5859375 73.82421875 C64.61690521 75.06709152 64.64787292 76.30996429 64.67977905 77.59049988 C64.68306257 86.00114359 64.68306257 86.00114359 62.70027161 88.90061951 C60.06880647 91.16621973 57.44077784 92.70908077 53.9375 92.6875 C49.7319244 91.95319315 48.5800898 91.08853916 46.02139282 87.77914429 C44.26994821 84.72833699 44.3344232 81.89286151 44.29296875 78.42578125 C44.27069466 77.34958527 44.27069466 77.34958527 44.24797058 76.25164795 C44.22001054 74.72555496 44.20335472 73.19921879 44.19720459 71.67288208 C44.18741839 69.29265072 44.14628635 66.91465367 44.09814453 64.53491211 C43.98011875 57.98057251 43.93820194 51.44226085 44.19921875 44.890625 C44.54093894 36.08580474 43.96213849 29.83007569 39.01953125 22.15234375 C36.03239512 18.96876153 33.43600761 18.18816651 29.16796875 17.62890625 C23.14301457 17.49466743 18.63854612 17.74423285 13.6875 21.375 C8.66179324 26.21456947 6.23869932 31.51727943 5.86869812 38.46582031 C5.86347893 39.75891113 5.86347893 39.75891113 5.8581543 41.078125 C5.85111984 42.06264648 5.84408539 43.04716797 5.83683777 44.06152344 C5.83267349 45.1137207 5.82850922 46.16591797 5.82421875 47.25 C5.80103094 49.48959284 5.77691404 51.72917622 5.75195312 53.96875 C5.71678031 57.49095096 5.68745138 61.01280062 5.67407227 64.53515625 C5.6586149 67.94053207 5.61843297 71.34489211 5.57421875 74.75 C5.57612717 75.80219727 5.57803558 76.85439453 5.58000183 77.93847656 C5.45756631 85.24797074 5.45756631 85.24797074 3.08911133 89.140625 C-0.21431507 92.08077873 -2.54094188 92.18381619 -6.9296875 92.42578125 C-9.99853982 91.79463992 -11.06096311 90.42912859 -13 88 C-13.54589844 84.95532227 -13.54589844 84.95532227 -13.609375 81.31640625 C-13.62613785 80.64468887 -13.6429007 79.9729715 -13.66017151 79.28089905 C-13.71022039 77.04131083 -13.7310325 74.80255248 -13.75 72.5625 C-13.77524702 70.98549735 -13.80155592 69.40851139 -13.82885742 67.83154297 C-13.88269631 64.41229656 -13.92079843 60.99328405 -13.94873047 57.57373047 C-13.98063036 53.71298322 -14.03078862 49.85303354 -14.09423828 45.99267578 C-14.177978 40.87402864 -14.238873 35.75558207 -14.28308105 30.63644409 C-14.30262996 28.63533779 -14.32822522 26.63428105 -14.35998535 24.6333313 C-14.40177116 21.80999351 -14.41711133 18.98767149 -14.42578125 16.1640625 C-14.45195274 14.90530052 -14.45195274 14.90530052 -14.47865295 13.62110901 C-14.45917092 8.27977841 -13.56618061 5.23128678 -10 1 C-6.76313815 -0.61843092 -3.48624071 -0.72129118 0 0 Z " fill="#040404" transform="translate(642,798)"/>
<path d="M0 0 C1.0209375 -0.02449219 2.041875 -0.04898438 3.09375 -0.07421875 C13.88700918 -0.11530984 24.05264012 3.15047855 32.25 10.375 C37.59899082 16.76853623 40.4879116 23.16015774 40.5246582 31.57641602 C40.53419022 32.78109024 40.54372223 33.98576447 40.55354309 35.22694397 C40.55263168 36.51459152 40.55172028 37.80223907 40.55078125 39.12890625 C40.55467292 40.47598908 40.55900856 41.8230707 40.56376648 43.17015076 C40.57120462 45.98513785 40.57095411 48.79999944 40.56567383 51.61499023 C40.55986936 55.21518569 40.57684476 58.81486832 40.6000185 62.41497898 C40.61477319 65.19373048 40.61562544 67.97235877 40.61250877 70.7511425 C40.61326873 72.72145224 40.62711964 74.69174292 40.64118958 76.66200256 C40.63496078 77.86352463 40.62873199 79.06504669 40.62231445 80.30297852 C40.62294388 81.35743668 40.6235733 82.41189484 40.6242218 83.49830627 C40.19331297 86.81076088 39.21520382 88.69662326 37.25 91.375 C33.7863091 93.10684545 30.02840556 92.98571919 26.25 92.375 C23.6875 90.0625 23.6875 90.0625 22.25 87.375 C22.25 86.385 22.25 85.395 22.25 84.375 C21.58613281 84.78492188 20.92226563 85.19484375 20.23828125 85.6171875 C19.35527344 86.15601563 18.47226562 86.69484375 17.5625 87.25 C16.69238281 87.78367187 15.82226562 88.31734375 14.92578125 88.8671875 C5.24629194 94.32161505 -6.64125452 94.64126541 -17.4765625 92.94921875 C-25.73930979 90.56966432 -32.60949551 84.82790809 -36.75 77.375 C-37.10320312 76.82457031 -37.45640625 76.27414062 -37.8203125 75.70703125 C-40.39966256 69.23698089 -39.68046561 59.9523241 -37.9453125 53.28125 C-34.27964971 45.0903897 -27.65256017 40.27528141 -19.5 36.9375 C-6.32929801 33.04194026 8.65210106 34.13950953 21.25 39.375 C20.57922921 30.83619787 20.57922921 30.83619787 17.0625 23.25 C9.01501241 17.88500828 0.71842365 17.01871857 -8.75 18.375 C-12.02504354 19.45049891 -15.01552689 20.76349784 -18.125 22.2421875 C-22.06643961 23.94310638 -24.52225531 24.12995441 -28.75 23.375 C-31.74097304 20.83267292 -32.59202557 19.2175303 -33.3125 15.375 C-32.53091946 11.20657044 -31.06155403 10.01072668 -27.75 7.375 C-18.57331071 1.44016917 -10.7917827 0.01342262 0 0 Z " fill="#050505" transform="translate(493.75,797.625)"/>
<path d="M0 0 C7.60899019 6.39497153 11.95550536 13.72912788 13.11746216 23.72186279 C13.27972571 27.31528635 13.31907565 30.88733782 13.3046875 34.484375 C13.31088608 35.7887149 13.31708466 37.09305481 13.32347107 38.43692017 C13.33379268 41.17508869 13.32942713 43.91273468 13.31469727 46.65087891 C13.29740058 50.15156404 13.32117727 53.65062428 13.35618687 57.15112877 C13.38344047 60.51230739 13.37343059 63.87309103 13.3671875 67.234375 C13.38044571 68.48648773 13.39370392 69.73860046 13.40736389 71.02865601 C13.30388038 80.65083524 13.30388038 80.65083524 10.34375 83.74609375 C6.88471046 86.02273297 4.86258428 86.17871167 0.83203125 85.95703125 C-1.26171875 85.4609375 -1.26171875 85.4609375 -3.82421875 83.1484375 C-5.26171875 80.4609375 -5.26171875 80.4609375 -5.26171875 77.4609375 C-5.92558594 77.87085938 -6.58945312 78.28078125 -7.2734375 78.703125 C-8.15644531 79.24195313 -9.03945313 79.78078125 -9.94921875 80.3359375 C-10.81933594 80.86960937 -11.68945312 81.40328125 -12.5859375 81.953125 C-22.22669633 87.38572779 -34.12417079 87.76533857 -44.91796875 86.03515625 C-52.17776343 83.95179968 -58.04727124 79.24319206 -62.69921875 73.3984375 C-66.97753415 65.35520454 -67.32985175 56.97549124 -65.8671875 48.0546875 C-63.77809298 41.26176079 -58.51581657 36.27676004 -52.43359375 32.8828125 C-39.75456196 26.98401161 -24.84856605 26.27549016 -11.44921875 30.4609375 C-9.70833965 31.09639147 -7.97304951 31.74973511 -6.26171875 32.4609375 C-7.27734921 22.27607595 -7.27734921 22.27607595 -13.26171875 14.4609375 C-20.59033221 10.73832479 -28.16848585 10.27338775 -36.26171875 11.4609375 C-39.30623931 12.53023253 -42.00860516 13.82771982 -44.859375 15.328125 C-48.6810411 17.13021145 -51.1031467 17.19051154 -55.26171875 16.4609375 C-58.2616499 13.91099602 -59.11652334 12.33210994 -59.76171875 8.4609375 C-59.10390443 4.51405157 -58.21208314 3.20056158 -55.26171875 0.4609375 C-39.04489144 -9.85051684 -16.16838509 -11.42519717 0 0 Z " fill="#040404" transform="translate(852.26171875,804.5390625)"/>
<path d="M0 0 C47.19 0 94.38 0 143 0 C128.03543267 37.41141832 101.78228666 72.57221225 77.1640625 104.20703125 C74.74072648 107.33462196 72.38680082 110.50821984 70.05859375 113.70703125 C69.53458984 114.34705078 69.53458984 114.34705078 69 115 C68.67 115 68.34 115 68 115 C67.99453156 113.73784668 67.99453156 113.73784668 67.98895264 112.45019531 C67.95079825 104.44936931 67.89364075 96.44893964 67.81609726 88.44839478 C67.77689295 84.33700155 67.74457408 80.22581385 67.72900391 76.11425781 C67.71365622 72.13282363 67.67890023 68.15195556 67.63169098 64.17077637 C67.61706096 62.6657 67.6089698 61.16054273 67.60811615 59.65539551 C67.59272954 46.10603524 66.70332519 30.41713302 57 20 C54.48003307 17.72638421 51.85262918 15.8322223 49 14 C47.989375 13.29875 46.97875 12.5975 45.9375 11.875 C35.77960479 6.30903002 22.7373422 5.06897491 11.4375 3.5078125 C10.261875 3.34023438 9.08625 3.17265625 7.875 3 C6.79992187 2.855625 5.72484375 2.71125 4.6171875 2.5625 C2 2 2 2 0 0 Z " fill="#030303" transform="translate(803,518)"/>
<path d="M0 0 C1.80621165 2.70931747 3.09177661 5.244456 4.43359375 8.19921875 C12.83858475 26.41781891 21.99502265 41.65028475 36 56 C36.97839844 57.07121094 36.97839844 57.07121094 37.9765625 58.1640625 C47.51964889 68.35689094 61.46637609 78.34226381 75 82 C72.2626466 85.63495068 69.42933034 88.47836196 65.875 91.3125 C64.91078125 92.0859375 63.9465625 92.859375 62.953125 93.65625 C61.97859375 94.4296875 61.0040625 95.203125 60 96 C58.20827588 97.43742839 56.41660577 98.87492411 54.625 100.3125 C53.08360503 101.54200736 51.54194395 102.77118119 50 104 C49.20851563 104.73347656 48.41703125 105.46695313 47.6015625 106.22265625 C43.04866833 109.33311698 38.30380437 108.26866613 33.04589844 107.42480469 C26.46552215 106.05847357 20.22444752 103.47790506 14 101 C12.9378125 100.59523438 11.875625 100.19046875 10.78125 99.7734375 C-6.35474114 93.00195713 -22.21864026 83.21529614 -36 71 C-34.30294422 67.37894826 -32.24910667 65.05190679 -29.4375 62.1875 C-23.95959525 56.25178764 -19.91607585 49.91944811 -16.02734375 42.86132812 C-15.07151938 41.12957789 -14.08384937 39.41550998 -13.09375 37.703125 C-7.84260319 28.07602252 -5.24859187 17.96887816 -2.66674805 7.36499023 C-1.95015723 4.82320508 -1.01952662 2.43437988 0 0 Z " fill="#030303" transform="translate(712,625)"/>
<path d="M0 0 C3.45762282 0.0723818 4.62104844 0.33485218 7.6875 2.1875 C11.40000649 6.24805398 10.89710984 10.76784521 11.00390625 15.98046875 C11.02468735 16.81967361 11.04546844 17.65887848 11.06687927 18.52351379 C11.13224018 21.20309294 11.19119714 23.88276969 11.25 26.5625 C11.29319802 28.37956737 11.33681273 30.19662488 11.38085938 32.01367188 C11.4879078 36.46734799 11.58921319 40.92112226 11.6875 45.375 C12.16145203 44.95882416 12.63540405 44.54264832 13.12371826 44.11386108 C13.74901428 43.57016876 14.3743103 43.02647644 15.01855469 42.46630859 C15.63688171 41.92638275 16.25520874 41.38645691 16.89227295 40.83016968 C22.72202189 36.10470953 30.52480725 34.6715678 37.86328125 34.99609375 C47.09180352 36.23422191 55.18925798 39.60653406 61.6875 46.375 C68.96337529 56.10746114 70.00169273 64.67692572 70.0234375 76.53515625 C70.0334227 78.43001015 70.0334227 78.43001015 70.04360962 80.36314392 C70.05371082 83.02682669 70.05929548 85.69010077 70.05810547 88.35375977 C70.05790179 91.75555383 70.08527598 95.15651712 70.11964989 98.55811405 C70.14730334 101.82126321 70.14606831 105.08440585 70.1484375 108.34765625 C70.16280853 109.56340836 70.17717957 110.77916046 70.19198608 112.03175354 C70.15761721 118.38889869 70.12465089 122.61588952 65.6875 127.375 C62.52953893 128.95398053 59.08079364 129.19428171 55.6875 128.375 C53.25396927 126.71902819 52.1335815 125.85741567 50.6875 123.375 C49.95052002 119.30027315 50.03809492 115.26762763 50.0859375 111.13671875 C50.07793121 109.94198441 50.06992493 108.74725006 50.06167603 107.51631165 C50.03859486 103.69802987 50.04807041 99.88081058 50.0625 96.0625 C50.06635291 92.25509943 50.06284886 88.44817127 50.04190063 84.64082336 C50.02985679 82.27349136 50.03240526 79.90602685 50.05160522 77.53874207 C50.04728917 67.43952668 50.04728917 67.43952668 45.23544312 58.82304382 C39.67206915 54.03659818 35.49913599 53.90635413 28.31640625 53.97265625 C23.00095459 54.5619905 19.25232255 56.37762576 15.6875 60.375 C11.47106125 67.18343899 11.13735985 72.63560132 11.21875 80.5390625 C11.21170044 81.68990326 11.20465088 82.84074402 11.1973877 84.02645874 C11.17542379 87.68453455 11.17834506 91.3418778 11.1875 95 C11.19954261 99.82591574 11.18586015 104.65074241 11.15625 109.4765625 C11.16756958 110.57980865 11.17888916 111.68305481 11.19055176 112.81973267 C11.15015327 118.96048163 10.87749444 122.73886683 6.6875 127.375 C3.47055636 128.98347182 0.16612778 128.98809149 -3.3125 128.375 C-6.00355198 126.19925584 -7.76782928 124.46434144 -9.3125 121.375 C-9.41105186 119.8659084 -9.44753715 118.35255225 -9.45294189 116.84025574 C-9.46150711 115.4081501 -9.46150711 115.4081501 -9.47024536 113.94711304 C-9.47136322 112.89617462 -9.47248108 111.84523621 -9.47363281 110.76245117 C-9.47859772 109.65828354 -9.48356262 108.55411591 -9.48867798 107.41648865 C-9.50332694 103.75030909 -9.51010626 100.08417281 -9.515625 96.41796875 C-9.52137432 93.87689716 -9.52713208 91.33582558 -9.53289795 88.79475403 C-9.54207024 84.14313335 -9.5483673 79.49152572 -9.5513947 74.83989829 C-9.55587375 67.99541005 -9.57341344 61.15112168 -9.6023953 54.30669421 C-9.6266279 48.37788277 -9.63433961 42.44912104 -9.63607025 36.52025795 C-9.63910108 33.99844589 -9.64714402 31.47663476 -9.66025543 28.95485497 C-9.67728137 25.42832621 -9.67544381 21.90228543 -9.66894531 18.37573242 C-9.6781601 17.3308667 -9.68737488 16.28600098 -9.6968689 15.20947266 C-9.65559264 8.07065819 -8.65761635 0.14550616 0 0 Z " fill="#070707" transform="translate(367.3125,761.625)"/>
<path d="M0 0 C0.33 0 0.66 0 1 0 C1.1451001 0.78310547 1.2902002 1.56621094 1.43969727 2.37304688 C7.82024162 36.76763293 7.82024162 36.76763293 21 69 C21.3211377 69.60521484 21.64227539 70.21042969 21.97314453 70.83398438 C26.01671208 78.39567299 30.40125698 85.47210388 36 92 C36.68835938 92.80953125 37.37671875 93.6190625 38.0859375 94.453125 C61.64792131 121.40472753 97.12363471 139.05377068 132.94213867 141.62353516 C135.96132405 141.79845273 138.97685941 141.9176256 142 142 C132.38767403 149.46931823 121.13297709 150.37712913 109.3125 150.3125 C108.25957764 150.30831055 107.20665527 150.30412109 106.12182617 150.29980469 C97.74025119 150.17899382 90.10783802 149.23037339 82 147 C80.89785156 146.70996094 79.79570312 146.41992188 78.66015625 146.12109375 C59.63357197 140.71401451 42.17190428 130.53876386 27 118 C25.84371094 117.05640625 25.84371094 117.05640625 24.6640625 116.09375 C4.04874362 98.71685286 -8.84581867 72.71504305 -15.5625 47 C-15.74329102 46.32332275 -15.92408203 45.64664551 -16.11035156 44.94946289 C-16.56640625 43.0625 -16.56640625 43.0625 -17 40 C-16.34 39.34 -15.68 38.68 -15 38 C-14.12365965 35.94882385 -13.31379835 33.86901303 -12.5390625 31.77734375 C-12.3072226 31.1578334 -12.07538269 30.53832306 -11.83651733 29.90003967 C-11.09417064 27.91440947 -10.35910751 25.92618953 -9.625 23.9375 C-6.62918724 15.85658429 -3.61837925 7.82838923 0 0 Z " fill="#3F3F3F" transform="translate(249,566)"/>
<path d="M0 0 C1.94905827 3.39219077 2.61565122 6.60269414 3.3125 10.4375 C9.20911058 41.36952291 18.31598166 69.61640114 39 94 C39.55171875 94.68578125 40.1034375 95.3715625 40.671875 96.078125 C53.64518977 111.7696581 73.85872065 124.23482422 93 131 C94.23169922 131.48533203 94.23169922 131.48533203 95.48828125 131.98046875 C110.64534951 137.84120181 124.82504738 139.72632811 141 140 C129.83198896 148.78917461 115.79707093 150.26996104 102 149 C95.582834 148.06289416 89.28316223 146.58856738 83 145 C82.00871094 144.74992188 81.01742187 144.49984375 79.99609375 144.2421875 C45.72876579 134.67153732 16.19084142 109.92958963 -1.55078125 79.51953125 C-5.05393173 73.25193519 -7.53757532 66.73220595 -10 60 C-10.50789063 58.81664062 -11.01578125 57.63328125 -11.5390625 56.4140625 C-12.79477209 53.47959678 -13.92489579 50.60735776 -14.875 47.5625 C-15.30425781 46.26505859 -15.30425781 46.26505859 -15.7421875 44.94140625 C-16.02946175 41.66386824 -15.31048586 39.58024339 -14.05566406 36.57641602 C-12.70277913 33.27461336 -11.54122831 29.91249084 -10.37109375 26.54296875 C-9.88910407 25.1697701 -9.40667489 23.79672564 -8.92382812 22.42382812 C-8.17579432 20.29374571 -7.42904489 18.16324958 -6.68579102 16.03149414 C-5.95970753 13.95062485 -5.22836233 11.87166817 -4.49609375 9.79296875 C-4.06482178 8.5608667 -3.6335498 7.32876465 -3.18920898 6.05932617 C-2 3 -2 3 0 0 Z " fill="#404040" transform="translate(490,569)"/>
<path d="M0 0 C0.92053162 0.00087616 1.84106323 0.00175232 2.78948975 0.00265503 C31.47667832 0.09239371 60.2988137 4.17507702 85.69775391 18.3203125 C87.73927855 19.43753906 89.80626298 20.48844323 91.88671875 21.53125 C101.44536964 26.36399961 110.09651683 31.90092165 118.625 38.375 C116.5385059 43.01165357 113.48252847 47.10833744 110.55078125 51.2421875 C108.14939341 54.60411108 108.14939341 54.60411108 108.0390625 58.546875 C110.07785425 60.89700933 112.28368423 62.72783403 114.75 64.625 C115.66007813 65.33140625 116.57015625 66.0378125 117.5078125 66.765625 C118.20648437 67.29671875 118.90515625 67.8278125 119.625 68.375 C117.671875 72.28125 115.71875 76.1875 113.765625 80.09375 C113.41298584 80.80144531 113.06034668 81.50914062 112.69702148 82.23828125 C111.98558844 83.65628671 111.26639936 85.07042881 110.53930664 86.48046875 C108.54125512 90.37910585 106.87863824 94.18158986 105.5625 98.375 C104.52009993 101.66773155 103.43241526 104.91927908 102.19921875 108.14453125 C100.46113362 112.73106903 98.96960365 117.38413864 97.5 122.0625 C97.10361328 123.30483398 97.10361328 123.30483398 96.69921875 124.57226562 C95.46544236 128.4833994 94.30211787 132.32055032 93.625 136.375 C92.965 136.375 92.305 136.375 91.625 136.375 C90.3500346 132.27689691 89.42464318 128.30311428 88.75 124.0625 C87.93496997 119.34696913 86.55400706 115.22978163 84.625 110.859375 C84.295 110.03953125 83.965 109.2196875 83.625 108.375 C83.16996094 107.30894531 82.71492187 106.24289062 82.24609375 105.14453125 C81.3686008 99.81886649 83.16071172 96.93045514 85.6875 92.3125 C86.13198486 91.45922119 86.57646973 90.60594238 87.03442383 89.72680664 C91.23596261 81.78753064 95.85040181 74.07172608 100.59594727 66.44702148 C101.13533936 65.56602783 101.67473145 64.68503418 102.23046875 63.77734375 C102.71668701 62.99866943 103.20290527 62.21999512 103.70385742 61.41772461 C104.959757 59.2488471 104.959757 59.2488471 103.625 56.375 C101.44686245 54.72200246 99.29492522 53.22360154 97 51.75 C96.32195312 51.30833496 95.64390625 50.86666992 94.9453125 50.41162109 C92.84625992 49.05355351 90.73777899 47.71159493 88.625 46.375 C88.02848633 45.99537109 87.43197266 45.61574219 86.81738281 45.22460938 C69.9196917 34.54934635 51.80014735 24.51043557 32.75 18.3125 C31.96625 18.05500977 31.1825 17.79751953 30.375 17.53222656 C11.78435847 11.48106478 -5.49482927 9.17602722 -25.0625 9.25 C-26.11641434 9.25182785 -26.11641434 9.25182785 -27.19161987 9.25369263 C-39.98770129 9.27973757 -52.69815757 9.45328758 -65.375 11.375 C-62.78300982 9.64700654 -61.32081999 8.9406552 -58.42578125 8.15625 C-57.65943359 7.94613281 -56.89308594 7.73601562 -56.10351562 7.51953125 C-55.30623047 7.30683594 -54.50894531 7.09414063 -53.6875 6.875 C-52.90955078 6.66230469 -52.13160156 6.44960938 -51.33007812 6.23046875 C-49.75909496 5.80332904 -48.18629216 5.38283033 -46.61181641 4.96875 C-44.66539208 4.4520829 -42.72819598 3.90089284 -40.79296875 3.34375 C-27.42355006 0.10477561 -13.67298926 -0.03194263 0 0 Z " fill="#40403F" transform="translate(842.375,308.625)"/>
<path d="M0 0 C2.45053906 0.84981325 4.82510204 1.4498718 7.36328125 1.96875 C14.6722556 3.51308702 21.1784334 6.00720433 27.765625 9.52734375 C30.25843319 10.73442371 32.72316569 11.72333202 35.30859375 12.70703125 C40.72798987 14.8481822 45.59379412 17.61204487 50.55078125 20.65625 C51.41670898 21.18412109 52.28263672 21.71199219 53.17480469 22.25585938 C68.29615361 31.55869 68.29615361 31.55869 71.61328125 34.90625 C71.61328125 38.90625 71.61328125 38.90625 70.00390625 40.6875 C69.2975 41.2546875 68.59109375 41.821875 67.86328125 42.40625 C65.48979835 44.34174397 63.44967333 46.09323048 61.42578125 48.40625 C60.82765625 48.90125 60.22953125 49.39625 59.61328125 49.90625 C55.74386197 49.52688722 53.25160077 48.26362114 50.09375 46.0625 C49.24458008 45.48000488 48.39541016 44.89750977 47.52050781 44.29736328 C46.62299805 43.6732959 45.72548828 43.04922852 44.80078125 42.40625 C30.67179915 32.79941884 16.189683 24.89965499 0.61328125 17.90625 C-0.423125 17.43316406 -1.45953125 16.96007812 -2.52734375 16.47265625 C-10.9096901 12.79679125 -19.54587736 10.199565 -28.38671875 7.90625 C-29.12374023 7.70580078 -29.86076172 7.50535156 -30.62011719 7.29882812 C-42.89528514 4.06153783 -55.01441463 3.51249331 -67.63671875 3.46875 C-68.38950104 3.4625766 -69.14228333 3.4564032 -69.9178772 3.45004272 C-78.99864696 3.40215607 -87.63837554 4.00042781 -96.54229736 5.86122131 C-101.28119527 6.83420811 -105.57792617 7.03246239 -110.38671875 6.90625 C-90.26859609 -15.96673618 -24.82169863 -8.67937542 0 0 Z " fill="#414141" transform="translate(631.38671875,315.09375)"/>
<path d="M0 0 C2.68631114 1.81316713 4.54431355 3.0886271 6 6 C6.59873168 11.26883876 5.25400021 13.8846468 2 18 C-0.59461405 19.29730702 -2.91245794 19.09566587 -5.76489258 19.13647461 C-15.66499948 19.33192235 -15.66499948 19.33192235 -24.16404724 24.02424622 C-30.20455239 30.52471354 -30.55474055 39.10166418 -30.43359375 47.51953125 C-30.44318985 49.69726638 -30.45296055 51.87500074 -30.46289062 54.05273438 C-30.45426235 57.44759244 -30.43730691 60.84226355 -30.4152832 64.23706055 C-30.40078965 67.53992688 -30.41598409 70.8417041 -30.43359375 74.14453125 C-30.41711288 75.15916946 -30.40063202 76.17380768 -30.38365173 77.2191925 C-30.43366104 84.26384652 -30.43366104 84.26384652 -33.37915039 88.0925293 C-36.83246407 90.60587255 -39.23498398 92.04304917 -43.5625 91.9375 C-46.95838488 90.63139043 -48.04190922 89.05965194 -50 86 C-50.38712926 83.21853766 -50.54823632 80.83629895 -50.51757812 78.06030273 C-50.5245874 77.27595856 -50.53159668 76.49161438 -50.53881836 75.6835022 C-50.55637424 73.0998356 -50.54478589 70.5172708 -50.53125 67.93359375 C-50.53394535 66.1342803 -50.53782813 64.33496826 -50.54284668 62.53565979 C-50.54873821 58.76883038 -50.54018898 55.00238089 -50.52148438 51.2355957 C-50.49867847 46.40766688 -50.51183022 41.58062671 -50.53577423 36.75273037 C-50.55022761 33.03893841 -50.54562865 29.32535722 -50.53526306 25.61155891 C-50.53259535 23.83135943 -50.53586712 22.05114079 -50.54518127 20.27096367 C-50.55534135 17.78356078 -50.53985557 15.29759831 -50.51757812 12.81030273 C-50.52567505 12.07512924 -50.53377197 11.33995575 -50.54211426 10.58250427 C-50.48484165 7.1306021 -50.2419968 5.31335828 -48.10412598 2.5450592 C-45.03557104 0.29182004 -42.88145306 0.43708941 -39.1875 0.61328125 C-35.8666192 1.20036553 -34.22051685 2.5103296 -32 5 C-30.6875 7.75 -30.6875 7.75 -30 10 C-29.05125 9.0925 -28.1025 8.185 -27.125 7.25 C-19.36741923 0.70260183 -10.07803325 -1.79634669 0 0 Z " fill="#030303" transform="translate(608,798)"/>
<path d="M0 0 C2.29554785 0.68408746 4.55599953 1.14936949 6.91479492 1.55737305 C17.10708876 3.49261871 27.18191682 6.71443954 36.28979492 11.68237305 C37.3287793 12.1206543 38.36776367 12.55893555 39.43823242 13.01049805 C43.86161705 14.88347848 48.10204695 17.07349564 52.35229492 19.30737305 C53.17705322 19.74033691 54.00181152 20.17330078 54.8515625 20.61938477 C62.2729772 24.57163444 69.32566023 28.97902596 76.28979492 33.68237305 C74.70023209 37.49553783 72.28218795 40.05515705 69.41479492 42.99487305 C68.55112305 43.89850586 67.68745117 44.80213867 66.79760742 45.7331543 C64.28979492 47.68237305 64.28979492 47.68237305 62.41162109 47.47045898 C59.98847618 46.57045763 58.01091922 45.41600646 55.83276367 44.0222168 C54.97448975 43.47944092 54.11621582 42.93666504 53.23193359 42.37744141 C52.32290283 41.79744385 51.41387207 41.21744629 50.47729492 40.61987305 C41.92298681 35.23944826 33.30537897 30.24843265 24.28979492 25.68237305 C23.65605957 25.35237305 23.02232422 25.02237305 22.36938477 24.68237305 C17.85816811 22.36275643 13.33452376 20.45661142 8.53979492 18.80737305 C7.81518066 18.55616699 7.09056641 18.30496094 6.34399414 18.04614258 C-16.13219307 10.35654334 -38.21154577 4.46727423 -62.08520508 4.49487305 C-63.15585709 4.49428391 -63.15585709 4.49428391 -64.24813843 4.49368286 C-81.71334998 4.27495665 -81.71334998 4.27495665 -98.71020508 7.68237305 C-101.04320333 7.72191539 -103.37728697 7.72639037 -105.71020508 7.68237305 C-102.04196667 4.35378635 -97.99860779 3.38988908 -93.33520508 2.11987305 C-91.84795352 1.70287456 -90.360969 1.28492241 -88.87426758 0.8659668 C-88.1556958 0.66648437 -87.43712402 0.46700195 -86.69677734 0.26147461 C-85.03811379 -0.22203897 -83.40311992 -0.78581059 -81.77661133 -1.3684082 C-56.93874959 -9.05707114 -24.6298949 -7.9419464 0 0 Z " fill="#424242" transform="translate(387.710205078125,313.317626953125)"/>
<path d="M0 0 C5.218125 -0.0825 10.43625 -0.165 15.8125 -0.25 C18.24653198 -0.30462402 18.24653198 -0.30462402 20.72973633 -0.36035156 C30.55466146 -0.43513462 39.47401115 0.2359281 47.5625 6.5 C52.31914154 11.37860671 52.47511857 15.560981 52.51074219 22.27441406 C52.35983497 27.53058906 51.15975255 30.60876229 47.703125 34.484375 C41.55695228 39.95390485 36.63799963 41.30407365 28.41796875 41.1953125 C27.69565063 41.19329834 26.97333252 41.19128418 26.22912598 41.18920898 C23.54851875 41.17879886 20.86800254 41.15087645 18.1875 41.125 C12.185625 41.08375 6.18375 41.0425 0 41 C0 27.47 0 13.94 0 0 Z " fill="#F8F8F8" transform="translate(270,782)"/>
<path d="M0 0 C0.33 0 0.66 0 1 0 C1.00410889 1.23339111 1.00821777 2.46678223 1.01245117 3.73754883 C1.0345863 8.41047304 1.08921755 13.08259548 1.15258789 17.75512695 C1.17547328 19.75927924 1.19009269 21.76354676 1.19555664 23.76782227 C1.2537585 41.6268381 4.25120076 57.12982338 11.08203125 73.62890625 C12 76 12 76 12 78 C10.6105957 79.09741211 10.6105957 79.09741211 8.67578125 80.27734375 C7.97646484 80.70853516 7.27714844 81.13972656 6.55664062 81.58398438 C5.81607422 82.03064453 5.07550781 82.47730469 4.3125 82.9375 C3.2306543 83.60168945 3.2306543 83.60168945 2.12695312 84.27929688 C0.72243856 85.13996288 -0.68487893 85.9960747 -2.09521484 86.84716797 C-3.70459536 87.82121242 -5.30110178 88.81648088 -6.89453125 89.81640625 C-9 91 -9 91 -11 91 C-11.33 91.66 -11.66 92.32 -12 93 C-20.84359977 73.82230612 -23.76134784 56.06395703 -23 35 C-25.64 36.98 -28.28 38.96 -31 41 C-29.09476825 37.1895365 -27.32340956 35.00406118 -24.4375 31.9375 C-11.81253146 18.48171945 -11.81253146 18.48171945 -2 3 C-1.34 2.01 -0.68 1.02 0 0 Z " fill="#3F3F3F" transform="translate(956,610)"/>
<path d="M0 0 C0.66 0.33 1.32 0.66 2 1 C1.67386719 1.58265625 1.34773438 2.1653125 1.01171875 2.765625 C-6.71022719 17.25281561 -8.75429961 34.14222737 -4.03515625 50.01171875 C-3.69355469 50.99785156 -3.35195313 51.98398437 -3 53 C-2.58621094 54.20269531 -2.17242187 55.40539062 -1.74609375 56.64453125 C4.75786736 74.55438627 16.73058526 89.69237935 32 101 C32.97453125 101.72703125 33.9490625 102.4540625 34.953125 103.203125 C46.49045066 111.49376605 58.94171481 118.41702651 72 124 C67.57032243 125.41231691 64.52951267 123.99115947 60.375 122.3125 C59.65425293 122.03067871 58.93350586 121.74885742 58.19091797 121.45849609 C56.75884028 120.89691591 55.32859889 120.33062659 53.90039062 119.75927734 C52.39164138 119.15647542 50.87654506 118.56956386 49.359375 117.98828125 C46.88733907 117.03317646 44.44362958 116.02584729 42 115 C41.04552979 114.60240479 41.04552979 114.60240479 40.07177734 114.19677734 C18.03775856 104.95058175 -3.62815214 93.15128005 -15.5 71.4375 C-15.82629395 70.8489624 -16.15258789 70.2604248 -16.48876953 69.65405273 C-22.59520391 57.78729109 -23.15036195 41.11023879 -20.125 28.29296875 C-18.9515336 25.3477225 -17.61992062 22.72310707 -16 20 C-15.22076172 18.59234375 -15.22076172 18.59234375 -14.42578125 17.15625 C-10.49622515 10.48791238 -5.68447564 5.22043681 0 0 Z " fill="#434342" transform="translate(505,348)"/>
<path d="M0 0 C0.495 1.485 0.495 1.485 1 3 C-0.9757175 5.02318219 -3.01120744 6.88339999 -5.1875 8.6875 C-39.76817958 38.42109688 -52.76485152 87.38105338 -59.48876953 130.72363281 C-59.93897401 133.60889744 -60.41408734 136.48817729 -60.90234375 139.3671875 C-63.13016946 152.83729423 -64.10524233 166.38426217 -65 180 C-65.33 180 -65.66 180 -66 180 C-67.14193214 126.99326683 -63.82502104 67.67298966 -28 25 C-27.28199219 24.14277344 -26.56398438 23.28554688 -25.82421875 22.40234375 C-18.25649395 13.70550903 -10.07423448 5.70239687 0 0 Z " fill="#E8E8E8" transform="translate(761,338)"/>
<path d="M0 0 C1.26046143 0.00978882 1.26046143 0.00978882 2.54638672 0.01977539 C16.70008342 0.32508342 16.70008342 0.32508342 20.75 4.375 C21.29488516 9.61840309 21.40802601 14.03457665 19.0625 18.8125 C13.3949014 25.09281196 7.71946303 27.55740028 -0.6171875 28.69921875 C-7.07509502 29.02323141 -11.84421514 27.09466801 -16.859375 23.08984375 C-19.65156263 20.27412645 -20.62970934 17.71573536 -20.875 13.875 C-20.58382442 9.070603 -18.82400794 6.63822464 -15.25 3.375 C-10.11834108 0.1388187 -5.88066653 -0.09814662 0 0 Z " fill="#F8F8F8" transform="translate(825.25,847.625)"/>
<path d="M0 0 C0.88655273 0.00322266 1.77310547 0.00644531 2.68652344 0.00976562 C9.15199293 0.14758159 14.59765839 1.10559336 20.25 4.4375 C21.28102405 16.06516014 21.28102405 16.06516014 17.875 20.4375 C10.660049 27.28417043 2.33560816 27.88866646 -7.234375 27.96875 C-12.37567135 27.191843 -16.4407321 24.44345588 -19.75 20.4375 C-20.99588096 16.69985711 -21.39594711 13.31318266 -20.75 9.4375 C-15.48264793 1.22662765 -9.12677751 -0.10220356 0 0 Z " fill="#F8F8F8" transform="translate(494.75,847.5625)"/>
<path d="M0 0 C4.0188476 0.83846461 7.76747185 2.08066157 11.61328125 3.48046875 C53.08148705 17.97477191 96.52556344 16.11040672 139.80078125 15.79296875 C139.47078125 16.45296875 139.14078125 17.11296875 138.80078125 17.79296875 C135.40967643 18.55899592 131.88781855 18.66342259 128.42578125 18.91796875 C127.30397461 19.00143555 126.18216797 19.08490234 125.02636719 19.17089844 C96.77948522 20.99640255 65.4661909 22.80681356 37.89453125 15.55859375 C34.42404029 14.69973488 30.95654592 14.16522412 27.42578125 13.60546875 C20.18572921 12.36799239 13.35474026 10.13804302 6.42578125 7.73046875 C5.40822754 7.37766846 4.39067383 7.02486816 3.34228516 6.66137695 C-3.93054014 4.06164736 -3.93054014 4.06164736 -6.19921875 1.79296875 C-3.19921875 -0.20703125 -3.19921875 -0.20703125 0 0 Z " fill="#1B1B1B" transform="translate(245.19921875,921.20703125)"/>
<path d="M0 0 C0.99 0.495 0.99 0.495 2 1 C-5.32555765 10.29863049 -12.89742767 19.39159256 -20.75 28.25 C-23.75166311 31.64661879 -26.50843146 35.19783416 -29.2265625 38.82421875 C-31.32604207 41.40001196 -33.63639627 43.66388003 -36 46 C-38.14465064 48.25255983 -40.25877242 50.53325475 -42.375 52.8125 C-43.62362735 54.15240951 -44.8723277 55.492251 -46.12109375 56.83203125 C-48.03946776 58.89229254 -49.95682401 60.95346726 -51.87158203 63.01708984 C-60.5406307 72.35844142 -69.37696678 81.49360825 -78.43847656 90.45507812 C-81.33802824 93.3238028 -84.22701593 96.2006642 -87.0625 99.1328125 C-90.47443098 102.64104798 -93.56712828 105.78356414 -98 108 C-98.66 106.68 -99.32 105.36 -100 104 C-99.25556641 103.36384766 -99.25556641 103.36384766 -98.49609375 102.71484375 C-94.45772038 99.22820261 -90.60571387 95.64798088 -86.87168884 91.83900452 C-85.09282563 90.09120466 -83.25950933 88.46990327 -81.36157227 86.85327148 C-76.6084826 82.71817409 -72.16260983 78.30651422 -67.71484375 73.84765625 C-66.424963 72.55921059 -66.424963 72.55921059 -65.10902405 71.24473572 C-63.30184139 69.43822985 -61.49590608 67.63047538 -59.69116211 65.8215332 C-56.94561607 63.0706319 -54.19477454 60.32510779 -51.44335938 57.58007812 C-49.6793668 55.81542468 -47.9156845 54.05046103 -46.15234375 52.28515625 C-44.93175514 51.06760399 -44.93175514 51.06760399 -43.68650818 49.82545471 C-39.4734595 45.59525878 -35.4073283 41.29612422 -31.52305603 36.76116943 C-28.97974799 33.82024258 -26.29239059 31.01539963 -23.625 28.1875 C-18.14545284 22.3298633 -12.98466424 16.28704832 -8 10 C-6.47921785 8.10412561 -4.95838667 6.20829055 -3.4375 4.3125 C-2.29103301 2.87550532 -1.1449484 1.43820494 0 0 Z " fill="#F1F1F1" transform="translate(951,616)"/>
<path d="M0 0 C2.91176993 2.1410073 5.28932914 4.2913219 7.5 7.125 C17.97798167 19.5345288 34.17985908 27.91944086 49 34 C48.34 34.99 47.68 35.98 47 37 C29.01140787 34.27445574 11.65687066 19.26543525 0 6 C-1.3046875 3.67578125 -1.3046875 3.67578125 -2 2 C-1.34 1.34 -0.68 0.68 0 0 Z " fill="#141414" transform="translate(194,886)"/>
<path d="M0 0 C1.25893066 0.0714624 2.51786133 0.1429248 3.81494141 0.21655273 C19.34147676 1.04026147 34.82993267 1.11769822 50.375 1.0625 C52.87630117 1.05746818 55.37760334 1.05290829 57.87890625 1.04882812 C63.9192931 1.03797138 69.95964166 1.02137022 76 1 C75.67 1.66 75.34 2.32 75 3 C71.60880772 3.76604693 68.08706783 3.86950265 64.625 4.125 C63.51914551 4.20991699 62.41329102 4.29483398 61.27392578 4.38232422 C42.89021748 5.59973968 24.41224378 5.16532613 6 5 C5.67 4.01 5.34 3.02 5 2 C3.35 1.67 1.7 1.34 0 1 C0 0.67 0 0.34 0 0 Z " fill="#404141" transform="translate(309,936)"/>
<path d="M0 0 C0.99 0.495 0.99 0.495 2 1 C-5.32555765 10.29863049 -12.89742767 19.39159256 -20.75 28.25 C-23.75166311 31.64661879 -26.50843146 35.19783416 -29.2265625 38.82421875 C-31.32576573 41.39967294 -33.64169789 43.65859117 -36 46 C-37.13100027 47.2157999 -38.25558065 48.43759142 -39.375 49.6640625 C-40.26445313 50.63472656 -40.26445313 50.63472656 -41.171875 51.625 C-42.3945207 52.9625953 -43.61325614 54.30377496 -44.828125 55.6484375 C-48.00982509 59.10680717 -50.83711223 61.72868258 -55 64 C-56.79521298 65.55745537 -56.79521298 65.55745537 -58.3125 67.1875 C-59.199375 68.115625 -60.08625 69.04375 -61 70 C-61.66 69.67 -62.32 69.34 -63 69 C-62.24904053 68.25427734 -61.49808105 67.50855469 -60.72436523 66.74023438 C-57.9056626 63.93980261 -55.09041081 61.13592255 -52.27612305 58.33105469 C-51.06382752 57.12374935 -49.8506313 55.91734766 -48.63647461 54.71191406 C-39.80650875 45.96036061 -39.80650875 45.96036061 -31.48364258 36.73095703 C-28.96374344 33.7910056 -26.28131784 31.00366057 -23.625 28.1875 C-18.14545284 22.3298633 -12.98466424 16.28704832 -8 10 C-6.47921785 8.10412561 -4.95838667 6.20829055 -3.4375 4.3125 C-2.29103301 2.87550532 -1.1449484 1.43820494 0 0 Z " fill="#D5D5D6" transform="translate(951,616)"/>
<path d="M0 0 C-0.99 0 -1.98 0 -3 0 C-2.505 1.485 -2.505 1.485 -2 3 C0.475 3.495 0.475 3.495 3 4 C3 4.33 3 4.66 3 5 C2.1435791 5.11069824 1.2871582 5.22139648 0.40478516 5.33544922 C-2.81986266 5.75393491 -6.04408597 6.17552693 -9.26806641 6.59912109 C-10.65462652 6.78067531 -12.04134219 6.96104609 -13.42822266 7.14013672 C-27.23616162 8.890296 -27.23616162 8.890296 -40.75 12.125 C-43.98935133 12.99713305 -46.66393696 13.16273478 -50 13 C-47.50460669 10.50460669 -45.79755372 10.32932533 -42.375 9.5625 C-38.1891375 8.62094995 -34.3254971 7.36037533 -30.32470703 5.81811523 C-25.55903776 4.14097202 -20.64671166 2.97715645 -15.75 1.75 C-14.67492187 1.46898437 -13.59984375 1.18796875 -12.4921875 0.8984375 C-11.45835937 0.63804687 -10.42453125 0.37765625 -9.359375 0.109375 C-8.42577148 -0.12813477 -7.49216797 -0.36564453 -6.53027344 -0.61035156 C-3.9687438 -1.00481329 -2.42857586 -0.83041626 0 0 Z " fill="#202020" transform="translate(823,264)"/>
<path d="M0 0 C48.18 0 96.36 0 146 0 C146 0.33 146 0.66 146 1 C145.27701092 1.00423194 144.55402184 1.00846388 143.80912399 1.01282406 C126.22434453 1.11608918 108.63960644 1.22472075 91.05489731 1.33933926 C82.55109783 1.39463801 74.04729416 1.44811452 65.54345703 1.49731445 C58.13227904 1.54019729 50.72113153 1.58648564 43.31000066 1.63687855 C39.38519201 1.66344644 35.46038928 1.68829869 31.53554535 1.70907402 C27.84200512 1.72867877 24.1485227 1.75283399 20.45503426 1.78049088 C18.45195087 1.79430203 16.44883598 1.8032779 14.44572449 1.81211853 C13.25383011 1.82190735 12.06193573 1.83169617 10.83392334 1.84178162 C9.79782803 1.84823417 8.76173271 1.85468672 7.69424057 1.8613348 C5.30412458 1.98434754 3.28390514 2.31553035 1 3 C0.67 2.01 0.34 1.02 0 0 Z " fill="#D2D2D2" transform="translate(800,517)"/>
<path d="M0 0 C6.76517044 -0.43908558 13.04871115 0.44984161 19.65625 1.78564453 C27.05649759 3.26394871 34.50520675 4.15284917 42 5 C41.67 5.99 41.34 6.98 41 8 C27.35461963 9.11644021 14.26829335 5.81348878 1 3 C0.67 2.01 0.34 1.02 0 0 Z " fill="#191A1A" transform="translate(273,932)"/>
<path d="M0 0 C0 4.07660535 -2.08084405 5.64265721 -4.75 8.4375 C-5.23573486 8.95666992 -5.72146973 9.47583984 -6.22192383 10.01074219 C-11.68099145 15.80474862 -17.32719983 21.4163014 -23 27 C-23.33 26.01 -23.66 25.02 -24 24 C-22.9375 22.25 -22.9375 22.25 -21 20 C-20.30777344 19.17242188 -20.30777344 19.17242188 -19.6015625 18.328125 C-12.46001536 9.84527205 -12.46001536 9.84527205 -8.625 7.625 C-5.19647354 5.50257886 -2.78399192 2.91347992 0 0 Z " fill="#DFDFE0" transform="translate(898,677)"/>
<path d="M0 0 C4.94328134 0.56522015 8.55179306 2.83277358 12.75 5.3125 C18.38546528 8.5696188 23.96868484 11.5228527 30 14 C26.4536286 15.55494746 23.94559996 14.4974898 20.46508789 13.15722656 C19.77535889 12.8784668 19.08562988 12.59970703 18.375 12.3125 C17.66657959 12.0350293 16.95815918 11.75755859 16.22827148 11.47167969 C14.80873368 10.91426364 13.39096478 10.35231951 11.97509766 9.78564453 C10.2446949 9.09733352 8.50394792 8.43514559 6.76171875 7.77734375 C0.1258378 5.2516756 0.1258378 5.2516756 -1 3 C-0.34 3 0.32 3 1 3 C0.67 2.01 0.34 1.02 0 0 Z " fill="#4B4A4A" transform="translate(547,458)"/>
<path d="M0 0 C1.75 1.5 1.75 1.5 3 3 C3 3.33 3 3.66 3 4 C-0.26987035 4.22587773 -3.54079281 4.42766605 -6.8125 4.625 C-8.2056543 4.72167969 -8.2056543 4.72167969 -9.62695312 4.8203125 C-10.51962891 4.871875 -11.41230469 4.9234375 -12.33203125 4.9765625 C-13.56530151 5.05511475 -13.56530151 5.05511475 -14.82348633 5.13525391 C-17 5 -17 5 -20 3 C-17.41932437 2.30081695 -14.83627153 1.61538951 -12.25 0.9375 C-11.15558594 0.63875977 -11.15558594 0.63875977 -10.0390625 0.33398438 C-6.31096731 -0.6319312 -3.66109261 -1.26011704 0 0 Z " fill="#4F4F4F" transform="translate(810,312)"/>
<path d="M0 0 C0.99 0.33 1.98 0.66 3 1 C2.45462284 10.44363607 1.46291615 19.65438032 0 29 C-0.33 29 -0.66 29 -1 29 C-1.02911003 25.10418244 -1.04683587 21.208393 -1.0625 17.3125 C-1.07087891 16.20970703 -1.07925781 15.10691406 -1.08789062 13.97070312 C-1.09111328 12.90400391 -1.09433594 11.83730469 -1.09765625 10.73828125 C-1.10289307 9.75899658 -1.10812988 8.77971191 -1.11352539 7.77075195 C-1.00308543 5.07530428 -0.60534166 2.62454361 0 0 Z " fill="#F5F6F5" transform="translate(697,468)"/>
<path d="M0 0 C5.22783672 1.24472303 10.1240908 3.76791712 15 6 C14.01 7.485 14.01 7.485 13 9 C7.01821359 8.09366873 1.64821535 5.90450089 -3 2 C-2.01 1.34 -1.02 0.68 0 0 Z " fill="#191919" transform="translate(228,914)"/>
<path d="M0 0 C0.66 0.33 1.32 0.66 2 1 C3.60908455 6.47429295 4.61003438 11.33626987 2.625 16.75 C2.08875 17.4925 1.5525 18.235 1 19 C0.01 19 -0.98 19 -2 19 C-1.85820962 16.77057252 -1.71140302 14.54146372 -1.5625 12.3125 C-1.48128906 11.07113281 -1.40007812 9.82976563 -1.31640625 8.55078125 C-1.05508683 5.61819663 -0.65201621 2.86558383 0 0 Z " fill="#0D0C0D" transform="translate(471,601)"/>
<path d="M0 0 C0 3.63 0 7.26 0 11 C-3.63 11 -7.26 11 -11 11 C-1.69230769 0 -1.69230769 0 0 0 Z " fill="#2E2E2E" transform="translate(871,708)"/>
<path d="M0 0 C3.339712 0.73586875 6.47836787 1.63842727 9.6875 2.8125 C9.3575 3.8025 9.0275 4.7925 8.6875 5.8125 C4.53523144 7.00206883 2.30024007 6.60210563 -1.625 4.875 C-2.50800781 4.49472656 -3.39101562 4.11445312 -4.30078125 3.72265625 C-4.96464844 3.42230469 -5.62851563 3.12195313 -6.3125 2.8125 C-3.7265625 -0.2109375 -3.7265625 -0.2109375 0 0 Z " fill="#1A1B1A" transform="translate(245.3125,921.1875)"/>
<path d="M0 0 C0.66 0.33 1.32 0.66 2 1 C-2.47389622 6.67889978 -7.03094252 12.28278847 -11.6875 17.8125 C-12.13843018 18.35092529 -12.58936035 18.88935059 -13.05395508 19.4440918 C-15.89450627 22.8018637 -18.85445721 25.93380423 -22 29 C-22 24.87059051 -19.78471445 23.30471939 -17.0625 20.5 C-10.95369709 14.03320115 -4.94491915 7.41737873 0 0 Z " fill="#BDBCBD" transform="translate(951,616)"/>
<path d="M0 0 C-0.309375 0.53625 -0.61875 1.0725 -0.9375 1.625 C-3.47488706 7.29680636 -3.28151204 13.75775402 -3.5625 19.875 C-3.60568359 20.75414062 -3.64886719 21.63328125 -3.69335938 22.5390625 C-3.79869339 24.69255797 -3.89977649 26.84626064 -4 29 C-4.33 29 -4.66 29 -5 29 C-5 22.07 -5 15.14 -5 8 C-7.64 9.98 -10.28 11.96 -13 14 C-11.1221143 10.24422859 -9.28395764 7.84127764 -6.5 4.75 C-5.7059375 3.85796875 -4.911875 2.9659375 -4.09375 2.046875 C-2 0 -2 0 0 0 Z " fill="#2D2D2D" transform="translate(938,637)"/>
<path d="M0 0 C0.66 0.33 1.32 0.66 2 1 C1.43410156 1.55429687 0.86820313 2.10859375 0.28515625 2.6796875 C-0.44832031 3.40414062 -1.18179688 4.12859375 -1.9375 4.875 C-2.66839844 5.59429688 -3.39929688 6.31359375 -4.15234375 7.0546875 C-6.05667999 8.87027192 -6.05667999 8.87027192 -7 11 C-6.34 11.33 -5.68 11.66 -5 12 C-7.64 13.98 -10.28 15.96 -13 18 C-13.66 16.68 -14.32 15.36 -15 14 C-14.50371094 13.57589844 -14.00742187 13.15179687 -13.49609375 12.71484375 C-8.79678658 8.65756716 -4.32846012 4.45019806 0 0 Z " fill="#E2E2E2" transform="translate(866,706)"/>
<path d="M0 0 C-0.99 0.66 -1.98 1.32 -3 2 C-3.66 2.66 -4.32 3.32 -5 4 C-7.15224223 4.43328034 -9.32335566 4.7759727 -11.5 5.0625 C-15.89758116 5.54504561 -15.89758116 5.54504561 -20 7 C-21.99960012 7.039992 -24.00047242 7.04346799 -26 7 C-23.50460669 4.50460669 -21.79755372 4.32932533 -18.375 3.5625 C-14.61101881 2.68243246 -11.07232491 1.72611161 -7.5 0.25 C-3.98503541 -1.0053445 -3.31187503 -1.07490681 0 0 Z " fill="#484949" transform="translate(799,270)"/>
<path d="M0 0 C7.26 0 14.52 0 22 0 C21.34 1.32 20.68 2.64 20 4 C12.91923749 4.40850553 6.80074041 2.90420731 0 1 C0 0.67 0 0.34 0 0 Z " fill="#191919" transform="translate(809,519)"/>
<path d="M0 0 C5.52654117 -0.4820659 9.0712208 1.08880075 13.875 3.5 C14.56335938 3.83386719 15.25171875 4.16773438 15.9609375 4.51171875 C17.64573446 5.33071727 19.32360619 6.16393591 21 7 C17.90010028 8.00719851 16.18309855 8.00792373 13.14453125 6.85546875 C12.44005859 6.59056641 11.73558594 6.32566406 11.00976562 6.05273438 C9.92211914 5.62444336 9.92211914 5.62444336 8.8125 5.1875 C7.70745117 4.77661133 7.70745117 4.77661133 6.58007812 4.35742188 C1.13410643 2.26821286 1.13410643 2.26821286 0 0 Z " fill="#5A595A" transform="translate(556,465)"/>
<path d="M0 0 C0 3.77798076 -0.14312666 5.98901274 -2.62890625 8.921875 C-3.26699219 9.52515625 -3.90507813 10.1284375 -4.5625 10.75 C-5.52349609 11.67039062 -5.52349609 11.67039062 -6.50390625 12.609375 C-6.99761719 13.06828125 -7.49132812 13.5271875 -8 14 C-8.33 13.01 -8.66 12.02 -9 11 C-7.9375 9.25 -7.9375 9.25 -6 7 C-5.23816406 6.1028125 -5.23816406 6.1028125 -4.4609375 5.1875 C-2.98294451 3.45033288 -1.4950676 1.72247271 0 0 Z " fill="#D9D9DA" transform="translate(883,690)"/>
<path d="M0 0 C0.33 0.99 0.66 1.98 1 3 C-1.07858979 5.18092036 -3.21856618 6.96390469 -5.6875 8.6875 C-6.62142578 9.34298828 -6.62142578 9.34298828 -7.57421875 10.01171875 C-8.04472656 10.33785156 -8.51523437 10.66398437 -9 11 C-9 8 -9 8 -8 5 C-6.15234375 3.61328125 -6.15234375 3.61328125 -3.9375 2.3125 C-3.20402344 1.87550781 -2.47054687 1.43851562 -1.71484375 0.98828125 C-1.14894531 0.66214844 -0.58304688 0.33601563 0 0 Z " fill="#CDCDCD" transform="translate(761,338)"/>
<path d="M0 0 C-0.99 0 -1.98 0 -3 0 C-2.67 0.99 -2.34 1.98 -2 3 C-0.35 3.33 1.3 3.66 3 4 C3 4.33 3 4.66 3 5 C-3.435 5.495 -3.435 5.495 -10 6 C-9.01 5.01 -8.02 4.02 -7 3 C-7.66 2.01 -8.32 1.02 -9 0 C-5.62182575 -0.84454356 -3.32534757 -1.10844919 0 0 Z " fill="#2E2E2E" transform="translate(823,264)"/>
<path d="M0 0 C0.66 0.33 1.32 0.66 2 1 C1.34 1.66 0.68 2.32 0 3 C4.62 3 9.24 3 14 3 C10.27933528 5.48044315 7.13459526 5.44381173 2.8125 5.625 C2.06291016 5.66367187 1.31332031 5.70234375 0.54101562 5.7421875 C-1.30559199 5.83628216 -3.1527619 5.91922319 -5 6 C-5 5.34 -5 4.68 -5 4 C-3.37373596 2.61767557 -1.7074998 1.28062485 0 0 Z " fill="#5A5A5A" transform="translate(844,732)"/>
<path d="M0 0 C0.66 0 1.32 0 2 0 C2.33 4.62 2.66 9.24 3 14 C2.34 14 1.68 14 1 14 C0.67 14.66 0.34 15.32 0 16 C0 10.72 0 5.44 0 0 Z " fill="#C1C1C1" transform="translate(459,609)"/>
<path d="M0 0 C0.66 0.33 1.32 0.66 2 1 C1.54625 1.391875 1.0925 1.78375 0.625 2.1875 C-1.15854233 3.96339368 -1.15854233 3.96339368 -2 6.5625 C-3 9 -3 9 -6 11 C-6 10.34 -6 9.68 -6 9 C-6.66 8.67 -7.32 8.34 -8 8 C-5.36 5.36 -2.72 2.72 0 0 Z " fill="#E5E5E6" transform="translate(876,697)"/>
<path d="M0 0 C0 0.66 0 1.32 0 2 C-1.72814161 2.19672365 -3.45759197 2.38196799 -5.1875 2.5625 C-6.15042969 2.66691406 -7.11335938 2.77132812 -8.10546875 2.87890625 C-10.94233377 2.99758751 -13.25423671 2.67765639 -16 2 C-16 1.67 -16 1.34 -16 1 C-10.62915894 0.31798844 -5.41499441 -0.11521265 0 0 Z " fill="#B3B3B4" transform="translate(396,935)"/>
<path d="M0 0 C3.32957948 2.59980864 3.61761712 5.11064555 4.1875 9.1875 C4.42533203 10.81751953 4.42533203 10.81751953 4.66796875 12.48046875 C4.77753906 13.31191406 4.88710938 14.14335938 5 15 C1.2747485 10.34598717 0 5.97787717 0 0 Z " fill="#ACACAC" transform="translate(761,813)"/>
<path d="M0 0 C0 3.96130371 -1.34877125 4.82914401 -4 7.6875 C-4.7425 8.49574219 -5.485 9.30398438 -6.25 10.13671875 C-6.8275 10.75160156 -7.405 11.36648438 -8 12 C-8.66 11.34 -9.32 10.68 -10 10 C-6.7 6.7 -3.4 3.4 0 0 Z " fill="#E6E6E6" transform="translate(898,677)"/>
<path d="M0 0 C7.48291572 6.15034169 7.48291572 6.15034169 10 10 C6.7451198 9.41978222 5.06347592 8.47352859 2.75 6.125 C2.22921875 5.61195313 1.7084375 5.09890625 1.171875 4.5703125 C0 3 0 3 0 0 Z " fill="#595959" transform="translate(770,674)"/>
<path d="M0 0 C0.33 0 0.66 0 1 0 C1.74507544 6.37305598 2.10349817 12.58311325 2 19 C1.67 19 1.34 19 1 19 C-0.82855428 14.40767665 -1.12514462 11.02641732 -0.625 6.125 C-0.51414062 4.97257813 -0.40328125 3.82015625 -0.2890625 2.6328125 C-0.19367187 1.76398437 -0.09828125 0.89515625 0 0 Z " fill="#737374" transform="translate(720,525)"/>
<path d="M0 0 C2.64 0.33 5.28 0.66 8 1 C7.67 1.99 7.34 2.98 7 4 C4.69 4 2.38 4 0 4 C0 2.66666667 0 1.33333333 0 0 Z " fill="#161616" transform="translate(253,925)"/>
<path d="M0 0 C0.33 0 0.66 0 1 0 C1 4.29 1 8.58 1 13 C1.66 13.33 2.32 13.66 3 14 C1.02 14.66 -0.96 15.32 -3 16 C-2.67 14.68 -2.34 13.36 -2 12 C-1.34 12 -0.68 12 0 12 C0 8.04 0 4.08 0 0 Z " fill="#F1F1F1" transform="translate(579,868)"/>
<path d="M0 0 C1.42944945 2.35438733 2.08661261 3.48032433 1.625 6.25 C1.41875 6.8275 1.2125 7.405 1 8 C0.01 8 -0.98 8 -2 8 C-2.33 7.34 -2.66 6.68 -3 6 C-2.06553465 3.96855359 -1.06775224 1.96466413 0 0 Z " fill="#5C5B5B" transform="translate(490,569)"/>
<path d="M0 0 C0.99 0.33 1.98 0.66 3 1 C2.67 4.3 2.34 7.6 2 11 C0.68 9.68 -0.64 8.36 -2 7 C-1.34 4.69 -0.68 2.38 0 0 Z " fill="#DFE0DF" transform="translate(699,461)"/>
<path d="M0 0 C0.99 0.33 1.98 0.66 3 1 C3.125 3.875 3.125 3.875 3 7 C2.34 7.66 1.68 8.32 1 9 C0.34 9 -0.32 9 -1 9 C-1.125 2.25 -1.125 2.25 0 0 Z " fill="#FCFCFC" transform="translate(699,455)"/>
<path d="M0 0 C3.3 0 6.6 0 10 0 C7 3 7 3 3.8125 3.1875 C2.4203125 3.0946875 2.4203125 3.0946875 1 3 C0.67 2.01 0.34 1.02 0 0 Z " fill="#111111" transform="translate(273,932)"/>
<path d="M0 0 C0.33 0.66 0.66 1.32 1 2 C1.66 2 2.32 2 3 2 C3.33 4.97 3.66 7.94 4 11 C3.34 11 2.68 11 2 11 C0.80712589 7.12315913 0 4.08378077 0 0 Z " fill="#5C5C5B" transform="translate(932,434)"/>
<path d="M0 0 C0.99 0 1.98 0 3 0 C3.93065133 2.60582371 4.14917407 3.64198224 3.0625 6.25 C2.5365625 7.11625 2.5365625 7.11625 2 8 C1.896875 7.360625 1.79375 6.72125 1.6875 6.0625 C1.460625 5.381875 1.23375 4.70125 1 4 C0.01 3.67 -0.98 3.34 -2 3 C-1.34 2.01 -0.68 1.02 0 0 Z " fill="#494848" transform="translate(744,357)"/>
<path d="M0 0 C0.99 0.33 1.98 0.66 3 1 C2.67 1.99 2.34 2.98 2 4 C-0.64 4.33 -3.28 4.66 -6 5 C-5.01 4.67 -4.02 4.34 -3 4 C-2.67 3.01 -2.34 2.02 -2 1 C-1.34 0.67 -0.68 0.34 0 0 Z " fill="#040404" transform="translate(814,265)"/>
<path d="M0 0 C0.66 0.33 1.32 0.66 2 1 C2 3.64 2 6.28 2 9 C1.01 9 0.02 9 -1 9 C-0.67 6.03 -0.34 3.06 0 0 Z " fill="#222122" transform="translate(471,601)"/>
<path d="M0 0 C1.093125 0.226875 2.18625 0.45375 3.3125 0.6875 C3.3125 1.0175 3.3125 1.3475 3.3125 1.6875 C1.6625 1.6875 0.0125 1.6875 -1.6875 1.6875 C-1.6875 2.3475 -1.6875 3.0075 -1.6875 3.6875 C-3.3375 3.3575 -4.9875 3.0275 -6.6875 2.6875 C-4.58035839 -0.41123767 -3.86755884 -0.32775922 0 0 Z " fill="#2F302F" transform="translate(245.6875,921.3125)"/>
<path d="M0 0 C5.28 0 10.56 0 16 0 C14.68 0.99 13.36 1.98 12 3 C11.34 2.67 10.68 2.34 10 2 C8.29636178 1.77377919 6.58671299 1.59111527 4.875 1.4375 C3.96492187 1.35371094 3.05484375 1.26992188 2.1171875 1.18359375 C1.41851563 1.12300781 0.71984375 1.06242188 0 1 C0 0.67 0 0.34 0 0 Z " fill="#2E2E2E" transform="translate(613,710)"/>
<path d="M0 0 C1 3 1 3 0 6 C-1.65 6.33 -3.3 6.66 -5 7 C-3.70700306 4.11562221 -2.34058637 2.12780579 0 0 Z " fill="#4A4A4A" transform="translate(501,352)"/>
<path d="M0 0 C-0.33 0.99 -0.66 1.98 -1 3 C-3.64 2.67 -6.28 2.34 -9 2 C-4.13793103 -1.24137931 -4.13793103 -1.24137931 0 0 Z " fill="#545455" transform="translate(302,315)"/>
<path d="M0 0 C2.64 0.33 5.28 0.66 8 1 C8 1.33 8 1.66 8 2 C6.02 2 4.04 2 2 2 C2 2.66 2 3.32 2 4 C0.35 4 -1.3 4 -3 4 C-2.01 3.67 -1.02 3.34 0 3 C0 2.01 0 1.02 0 0 Z " fill="#313232" transform="translate(271,930)"/>
<path d="M0 0 C2.475 0.99 2.475 0.99 5 2 C4.01 3.485 4.01 3.485 3 5 C1.68 5 0.36 5 -1 5 C-0.67 3.35 -0.34 1.7 0 0 Z " fill="#202020" transform="translate(238,918)"/>
<path d="M0 0 C0.33 0 0.66 0 1 0 C0.88590407 1.45922693 0.75834456 2.91740598 0.625 4.375 C0.55539062 5.18710937 0.48578125 5.99921875 0.4140625 6.8359375 C0 9 0 9 -2 11 C-2 8.36 -2 5.72 -2 3 C-1.34 3 -0.68 3 0 3 C0 2.01 0 1.02 0 0 Z " fill="#323032" transform="translate(465,620)"/>
<path d="M0 0 C0.75 1.75 0.75 1.75 1 4 C-0.9375 6.25 -0.9375 6.25 -3 8 C-3.33 7.34 -3.66 6.68 -4 6 C-2.68 4.02 -1.36 2.04 0 0 Z " fill="#4E4E4E" transform="translate(721,398)"/>
<path d="M0 0 C0.66 0.33 1.32 0.66 2 1 C2 1.99 2 2.98 2 4 C-0.64 4 -3.28 4 -6 4 C-3.94766315 1.7522025 -2.99332739 0.9977758 0 0 Z " fill="#595958" transform="translate(527,318)"/>
<path d="M0 0 C1.32 0.33 2.64 0.66 4 1 C3.34 1 2.68 1 2 1 C2.66 2.32 3.32 3.64 4 5 C1.36 4.34 -1.28 3.68 -4 3 C-2.68 2.67 -1.36 2.34 0 2 C0 1.34 0 0.68 0 0 Z " fill="#222322" transform="translate(260,927)"/>
<path d="M0 0 C2.95929119 2.75520215 5.03681826 5.46627288 7 9 C6.01 9 5.02 9 4 9 C0 2.25 0 2.25 0 0 Z " fill="#C5C4C4" transform="translate(190,886)"/>
<path d="M0 0 C1.65 0.33 3.3 0.66 5 1 C4.67 1.99 4.34 2.98 4 4 C2.35 4.33 0.7 4.66 -1 5 C-0.67 3.35 -0.34 1.7 0 0 Z " fill="#2F2F2F" transform="translate(250,923)"/>
</svg>
